<mxfile host="app.diagrams.net" modified="2023-06-19T08:31:20.737Z" agent="Mozilla/5.0 (Windows NT 10.0; Win64; x64) AppleWebKit/537.36 (KHTML, like Gecko) Chrome/112.0.0.0 Safari/537.36" etag="Jed0F5Gq16T6LBS9eb6N" version="21.5.0" type="github" pages="3">
  <diagram name="访客入园" id="--xcupoQ96yt3pYSf0Hb">
    <mxGraphModel dx="1434" dy="796" grid="1" gridSize="10" guides="1" tooltips="1" connect="1" arrows="1" fold="1" page="1" pageScale="1" pageWidth="827" pageHeight="1169" math="0" shadow="0">
      <root>
        <mxCell id="0" />
        <mxCell id="1" parent="0" />
        <mxCell id="YVkKiyUcpjrD6TXjb2Rc-1" value="" style="shape=internalStorage;whiteSpace=wrap;html=1;backgroundOutline=1;dx=60;dy=40;fillColor=#fff2cc;strokeColor=#d6b656;" parent="1" vertex="1">
          <mxGeometry x="140" y="180" width="870" height="440" as="geometry" />
        </mxCell>
        <mxCell id="YVkKiyUcpjrD6TXjb2Rc-13" style="edgeStyle=orthogonalEdgeStyle;rounded=0;orthogonalLoop=1;jettySize=auto;html=1;exitX=1;exitY=0.5;exitDx=0;exitDy=0;fontSize=12;" parent="1" source="YVkKiyUcpjrD6TXjb2Rc-3" target="YVkKiyUcpjrD6TXjb2Rc-9" edge="1">
          <mxGeometry relative="1" as="geometry" />
        </mxCell>
        <mxCell id="YVkKiyUcpjrD6TXjb2Rc-32" value="设备与系统对接" style="edgeLabel;html=1;align=center;verticalAlign=middle;resizable=0;points=[];fontSize=12;fontFamily=Helvetica;fontColor=default;" parent="YVkKiyUcpjrD6TXjb2Rc-13" vertex="1" connectable="0">
          <mxGeometry x="0.1913" y="-4" relative="1" as="geometry">
            <mxPoint y="-4" as="offset" />
          </mxGeometry>
        </mxCell>
        <mxCell id="YVkKiyUcpjrD6TXjb2Rc-3" value="身份证读取设备" style="rounded=1;whiteSpace=wrap;html=1;fillColor=#dae8fc;strokeColor=#6c8ebf;fontSize=12;" parent="1" vertex="1">
          <mxGeometry x="440" y="285" width="120" height="60" as="geometry" />
        </mxCell>
        <mxCell id="YVkKiyUcpjrD6TXjb2Rc-5" value="入园，现场身份证识别" style="edgeStyle=orthogonalEdgeStyle;rounded=0;orthogonalLoop=1;jettySize=auto;html=1;entryX=0;entryY=0.5;entryDx=0;entryDy=0;fontSize=12;fillColor=#fff2cc;strokeColor=#d6b656;" parent="1" source="YVkKiyUcpjrD6TXjb2Rc-4" target="YVkKiyUcpjrD6TXjb2Rc-3" edge="1">
          <mxGeometry relative="1" as="geometry" />
        </mxCell>
        <mxCell id="YVkKiyUcpjrD6TXjb2Rc-4" value="访客" style="shape=umlActor;verticalLabelPosition=bottom;verticalAlign=top;html=1;outlineConnect=0;fontSize=12;" parent="1" vertex="1">
          <mxGeometry x="240" y="295" width="20" height="40" as="geometry" />
        </mxCell>
        <mxCell id="YVkKiyUcpjrD6TXjb2Rc-25" style="edgeStyle=orthogonalEdgeStyle;rounded=0;orthogonalLoop=1;jettySize=auto;html=1;exitX=0.5;exitY=1;exitDx=0;exitDy=0;fontSize=12;" parent="1" source="YVkKiyUcpjrD6TXjb2Rc-9" target="YVkKiyUcpjrD6TXjb2Rc-10" edge="1">
          <mxGeometry relative="1" as="geometry" />
        </mxCell>
        <mxCell id="YVkKiyUcpjrD6TXjb2Rc-9" value="系统自动生成预约单并登记访客身份信息" style="rounded=1;whiteSpace=wrap;html=1;fillColor=#d5e8d4;strokeColor=#82b366;fontSize=12;" parent="1" vertex="1">
          <mxGeometry x="798" y="285" width="120" height="60" as="geometry" />
        </mxCell>
        <mxCell id="YVkKiyUcpjrD6TXjb2Rc-21" style="edgeStyle=orthogonalEdgeStyle;rounded=0;orthogonalLoop=1;jettySize=auto;html=1;exitX=0.5;exitY=1;exitDx=0;exitDy=0;entryX=0.5;entryY=0;entryDx=0;entryDy=0;fontSize=12;" parent="1" source="YVkKiyUcpjrD6TXjb2Rc-10" target="YVkKiyUcpjrD6TXjb2Rc-20" edge="1">
          <mxGeometry relative="1" as="geometry" />
        </mxCell>
        <mxCell id="YVkKiyUcpjrD6TXjb2Rc-10" value="系统自动登记离园时间并完成该预约单" style="rounded=1;whiteSpace=wrap;html=1;fillColor=#d5e8d4;strokeColor=#82b366;fontSize=12;" parent="1" vertex="1">
          <mxGeometry x="798" y="455" width="120" height="60" as="geometry" />
        </mxCell>
        <mxCell id="YVkKiyUcpjrD6TXjb2Rc-17" value="离园，身份证识别" style="edgeStyle=orthogonalEdgeStyle;rounded=0;orthogonalLoop=1;jettySize=auto;html=1;exitX=1;exitY=0.3333333333333333;exitDx=0;exitDy=0;exitPerimeter=0;entryX=0;entryY=0.5;entryDx=0;entryDy=0;fontSize=12;" parent="1" target="YVkKiyUcpjrD6TXjb2Rc-23" edge="1">
          <mxGeometry x="-0.0643" relative="1" as="geometry">
            <mxPoint x="270" y="485" as="sourcePoint" />
            <Array as="points">
              <mxPoint x="360" y="485" />
              <mxPoint x="360" y="485" />
            </Array>
            <mxPoint as="offset" />
          </mxGeometry>
        </mxCell>
        <mxCell id="YVkKiyUcpjrD6TXjb2Rc-20" value="" style="ellipse;whiteSpace=wrap;html=1;aspect=fixed;fillColor=#f8cecc;strokeColor=#b85450;fontSize=12;" parent="1" vertex="1">
          <mxGeometry x="835.5" y="562" width="45" height="45" as="geometry" />
        </mxCell>
        <mxCell id="YVkKiyUcpjrD6TXjb2Rc-24" style="edgeStyle=orthogonalEdgeStyle;rounded=0;orthogonalLoop=1;jettySize=auto;html=1;exitX=1;exitY=0.5;exitDx=0;exitDy=0;entryX=0;entryY=0.5;entryDx=0;entryDy=0;fontSize=12;" parent="1" source="YVkKiyUcpjrD6TXjb2Rc-23" target="YVkKiyUcpjrD6TXjb2Rc-10" edge="1">
          <mxGeometry relative="1" as="geometry" />
        </mxCell>
        <mxCell id="YVkKiyUcpjrD6TXjb2Rc-33" value="设备与系统对接" style="edgeLabel;html=1;align=center;verticalAlign=middle;resizable=0;points=[];fontSize=12;fontFamily=Helvetica;fontColor=default;" parent="YVkKiyUcpjrD6TXjb2Rc-24" vertex="1" connectable="0">
          <mxGeometry x="0.1354" relative="1" as="geometry">
            <mxPoint x="9" as="offset" />
          </mxGeometry>
        </mxCell>
        <mxCell id="YVkKiyUcpjrD6TXjb2Rc-23" value="身份证读取设备" style="rounded=1;whiteSpace=wrap;html=1;fillColor=#dae8fc;strokeColor=#6c8ebf;fontSize=12;" parent="1" vertex="1">
          <mxGeometry x="441" y="455" width="120" height="60" as="geometry" />
        </mxCell>
        <mxCell id="YVkKiyUcpjrD6TXjb2Rc-26" value="现场操作" style="text;html=1;strokeColor=none;fillColor=none;align=center;verticalAlign=middle;whiteSpace=wrap;rounded=0;fontSize=15;" parent="1" vertex="1">
          <mxGeometry x="354" y="185" width="120" height="30" as="geometry" />
        </mxCell>
        <mxCell id="YVkKiyUcpjrD6TXjb2Rc-27" value="系统响应" style="text;html=1;strokeColor=none;fillColor=none;align=center;verticalAlign=middle;whiteSpace=wrap;rounded=0;fontSize=15;" parent="1" vertex="1">
          <mxGeometry x="790" y="185" width="100" height="30" as="geometry" />
        </mxCell>
        <mxCell id="YVkKiyUcpjrD6TXjb2Rc-28" value="" style="endArrow=none;html=1;rounded=0;entryX=1;entryY=0.5;entryDx=0;entryDy=0;fontSize=12;" parent="1" target="YVkKiyUcpjrD6TXjb2Rc-1" edge="1">
          <mxGeometry width="50" height="50" relative="1" as="geometry">
            <mxPoint x="140" y="402" as="sourcePoint" />
            <mxPoint x="720" y="450" as="targetPoint" />
          </mxGeometry>
        </mxCell>
        <mxCell id="YVkKiyUcpjrD6TXjb2Rc-29" value="访客入园" style="text;html=1;strokeColor=none;fillColor=none;align=center;verticalAlign=middle;whiteSpace=wrap;rounded=0;fontSize=12;" parent="1" vertex="1">
          <mxGeometry x="140" y="285" width="60" height="30" as="geometry" />
        </mxCell>
        <mxCell id="YVkKiyUcpjrD6TXjb2Rc-30" value="访客离园" style="text;html=1;strokeColor=none;fillColor=none;align=center;verticalAlign=middle;whiteSpace=wrap;rounded=0;fontSize=12;" parent="1" vertex="1">
          <mxGeometry x="140" y="500" width="60" height="30" as="geometry" />
        </mxCell>
        <mxCell id="YVkKiyUcpjrD6TXjb2Rc-31" value="访客" style="shape=umlActor;verticalLabelPosition=bottom;verticalAlign=top;html=1;outlineConnect=0;fontSize=12;" parent="1" vertex="1">
          <mxGeometry x="240" y="465" width="20" height="40" as="geometry" />
        </mxCell>
        <mxCell id="zIk8gXze-6bET2nJbhwE-5" value="" style="swimlane;whiteSpace=wrap;html=1;strokeColor=#d6b656;fontFamily=Helvetica;fontSize=12;fontColor=default;fillColor=#a8dadc;startSize=40;" parent="1" vertex="1">
          <mxGeometry x="140" y="180" width="870" height="440" as="geometry" />
        </mxCell>
        <mxCell id="y2ZFi9TFtG7UTOjzvkD7-2" value="系统响应" style="text;html=1;strokeColor=none;fillColor=none;align=center;verticalAlign=middle;whiteSpace=wrap;rounded=0;fontSize=15;fontFamily=Helvetica;fontColor=default;fontStyle=1" parent="zIk8gXze-6bET2nJbhwE-5" vertex="1">
          <mxGeometry x="668" y="5" width="100" height="30" as="geometry" />
        </mxCell>
        <mxCell id="YVkKiyUcpjrD6TXjb2Rc-2" value="" style="endArrow=none;html=1;rounded=0;entryX=0.583;entryY=-0.004;entryDx=0;entryDy=0;exitX=0.582;exitY=1.002;exitDx=0;exitDy=0;entryPerimeter=0;exitPerimeter=0;" parent="1" source="YVkKiyUcpjrD6TXjb2Rc-1" target="YVkKiyUcpjrD6TXjb2Rc-1" edge="1">
          <mxGeometry width="50" height="50" relative="1" as="geometry">
            <mxPoint x="580" y="480" as="sourcePoint" />
            <mxPoint x="630" y="430" as="targetPoint" />
          </mxGeometry>
        </mxCell>
        <mxCell id="y2ZFi9TFtG7UTOjzvkD7-1" value="现场操作" style="text;html=1;strokeColor=none;fillColor=none;align=center;verticalAlign=middle;whiteSpace=wrap;rounded=0;fontSize=15;fontFamily=Helvetica;fontColor=default;fontStyle=1" parent="1" vertex="1">
          <mxGeometry x="370" y="185" width="100" height="30" as="geometry" />
        </mxCell>
      </root>
    </mxGraphModel>
  </diagram>
  <diagram id="Xn59jEidurdJdBHBhsM4" name="第 2 页">
    <mxGraphModel dx="1434" dy="796" grid="1" gridSize="10" guides="1" tooltips="1" connect="1" arrows="1" fold="1" page="1" pageScale="1" pageWidth="827" pageHeight="1169" math="0" shadow="0">
      <root>
        <mxCell id="0" />
        <mxCell id="1" parent="0" />
        <mxCell id="oiUNjmwWHy3AyIHxd3Ki-1" value="" style="shape=internalStorage;whiteSpace=wrap;html=1;backgroundOutline=1;dx=60;dy=30;fillColor=#fff2cc;strokeColor=#d6b656;" parent="1" vertex="1">
          <mxGeometry x="140" y="180" width="1160" height="480" as="geometry" />
        </mxCell>
        <mxCell id="oiUNjmwWHy3AyIHxd3Ki-25" style="edgeStyle=orthogonalEdgeStyle;rounded=0;orthogonalLoop=1;jettySize=auto;html=1;exitX=0.5;exitY=1;exitDx=0;exitDy=0;entryX=0.5;entryY=0;entryDx=0;entryDy=0;fontFamily=Helvetica;fontSize=14;fontColor=default;" parent="1" source="oiUNjmwWHy3AyIHxd3Ki-5" target="oiUNjmwWHy3AyIHxd3Ki-24" edge="1">
          <mxGeometry relative="1" as="geometry" />
        </mxCell>
        <mxCell id="oiUNjmwWHy3AyIHxd3Ki-5" value="观看视频" style="rounded=1;whiteSpace=wrap;html=1;fillColor=#dae8fc;strokeColor=#6C8EBF;fontSize=14;" parent="1" vertex="1">
          <mxGeometry x="380" y="232" width="120" height="60" as="geometry" />
        </mxCell>
        <mxCell id="oiUNjmwWHy3AyIHxd3Ki-23" style="edgeStyle=orthogonalEdgeStyle;rounded=0;orthogonalLoop=1;jettySize=auto;html=1;exitX=1;exitY=0.3333333333333333;exitDx=0;exitDy=0;exitPerimeter=0;fontFamily=Helvetica;fontSize=14;fontColor=default;" parent="1" source="oiUNjmwWHy3AyIHxd3Ki-7" target="oiUNjmwWHy3AyIHxd3Ki-5" edge="1">
          <mxGeometry relative="1" as="geometry" />
        </mxCell>
        <mxCell id="oiUNjmwWHy3AyIHxd3Ki-7" value="入仓人员" style="shape=umlActor;verticalLabelPosition=bottom;verticalAlign=top;html=1;outlineConnect=0;fontSize=14;" parent="1" vertex="1">
          <mxGeometry x="240" y="248" width="20" height="40" as="geometry" />
        </mxCell>
        <mxCell id="oiUNjmwWHy3AyIHxd3Ki-30" style="edgeStyle=orthogonalEdgeStyle;rounded=0;orthogonalLoop=1;jettySize=auto;html=1;exitX=0.5;exitY=1;exitDx=0;exitDy=0;entryX=0.5;entryY=0;entryDx=0;entryDy=0;fontFamily=Helvetica;fontSize=14;fontColor=default;" parent="1" source="oiUNjmwWHy3AyIHxd3Ki-9" target="oiUNjmwWHy3AyIHxd3Ki-29" edge="1">
          <mxGeometry relative="1" as="geometry" />
        </mxCell>
        <mxCell id="oiUNjmwWHy3AyIHxd3Ki-9" value="在线答题" style="rounded=1;whiteSpace=wrap;html=1;fillColor=#d5e8d4;strokeColor=#82b366;fontSize=14;" parent="1" vertex="1">
          <mxGeometry x="769" y="345" width="120" height="60" as="geometry" />
        </mxCell>
        <mxCell id="oiUNjmwWHy3AyIHxd3Ki-17" value="现场操作" style="text;html=1;strokeColor=none;fillColor=none;align=center;verticalAlign=middle;whiteSpace=wrap;rounded=0;fontSize=15;" parent="1" vertex="1">
          <mxGeometry x="354" y="185" width="120" height="30" as="geometry" />
        </mxCell>
        <mxCell id="oiUNjmwWHy3AyIHxd3Ki-18" value="战场精益管理系统" style="text;html=1;strokeColor=none;fillColor=none;align=center;verticalAlign=middle;whiteSpace=wrap;rounded=0;fontSize=15;" parent="1" vertex="1">
          <mxGeometry x="1090" y="185" width="160" height="30" as="geometry" />
        </mxCell>
        <mxCell id="oiUNjmwWHy3AyIHxd3Ki-20" value="入仓流程" style="text;html=1;strokeColor=none;fillColor=none;align=center;verticalAlign=middle;whiteSpace=wrap;rounded=0;fontStyle=1" parent="1" vertex="1">
          <mxGeometry x="140" y="400" width="60" height="30" as="geometry" />
        </mxCell>
        <mxCell id="oiUNjmwWHy3AyIHxd3Ki-26" style="edgeStyle=orthogonalEdgeStyle;rounded=0;orthogonalLoop=1;jettySize=auto;html=1;exitX=1;exitY=0.5;exitDx=0;exitDy=0;fontFamily=Helvetica;fontSize=14;fontColor=default;" parent="1" source="oiUNjmwWHy3AyIHxd3Ki-24" target="oiUNjmwWHy3AyIHxd3Ki-9" edge="1">
          <mxGeometry relative="1" as="geometry" />
        </mxCell>
        <mxCell id="oiUNjmwWHy3AyIHxd3Ki-24" value="手机 扫码答题" style="rounded=1;whiteSpace=wrap;html=1;fillColor=#dae8fc;strokeColor=#6c8ebf;fontSize=14;" parent="1" vertex="1">
          <mxGeometry x="380" y="345" width="120" height="60" as="geometry" />
        </mxCell>
        <mxCell id="oiUNjmwWHy3AyIHxd3Ki-52" style="edgeStyle=orthogonalEdgeStyle;rounded=0;orthogonalLoop=1;jettySize=auto;html=1;exitX=0;exitY=0.5;exitDx=0;exitDy=0;entryX=1;entryY=0.5;entryDx=0;entryDy=0;fontFamily=Helvetica;fontSize=14;fontColor=default;" parent="1" source="oiUNjmwWHy3AyIHxd3Ki-27" target="oiUNjmwWHy3AyIHxd3Ki-9" edge="1">
          <mxGeometry relative="1" as="geometry" />
        </mxCell>
        <mxCell id="oiUNjmwWHy3AyIHxd3Ki-27" value="题库管理" style="rounded=1;whiteSpace=wrap;html=1;fillColor=#d5e8d4;strokeColor=#82b366;fontSize=14;" parent="1" vertex="1">
          <mxGeometry x="1098" y="345.5" width="120" height="60" as="geometry" />
        </mxCell>
        <mxCell id="oiUNjmwWHy3AyIHxd3Ki-35" style="edgeStyle=orthogonalEdgeStyle;rounded=0;orthogonalLoop=1;jettySize=auto;html=1;exitX=0.5;exitY=1;exitDx=0;exitDy=0;entryX=0.5;entryY=0;entryDx=0;entryDy=0;fontFamily=Helvetica;fontSize=14;fontColor=default;" parent="1" source="oiUNjmwWHy3AyIHxd3Ki-29" target="oiUNjmwWHy3AyIHxd3Ki-33" edge="1">
          <mxGeometry relative="1" as="geometry" />
        </mxCell>
        <mxCell id="oiUNjmwWHy3AyIHxd3Ki-36" style="edgeStyle=orthogonalEdgeStyle;rounded=0;orthogonalLoop=1;jettySize=auto;html=1;exitX=0.5;exitY=1;exitDx=0;exitDy=0;entryX=0.5;entryY=0;entryDx=0;entryDy=0;fontFamily=Helvetica;fontSize=14;fontColor=default;" parent="1" source="oiUNjmwWHy3AyIHxd3Ki-29" target="oiUNjmwWHy3AyIHxd3Ki-32" edge="1">
          <mxGeometry relative="1" as="geometry" />
        </mxCell>
        <mxCell id="oiUNjmwWHy3AyIHxd3Ki-29" value="答题分数" style="rounded=1;whiteSpace=wrap;html=1;fillColor=#d5e8d4;strokeColor=#82b366;fontSize=14;" parent="1" vertex="1">
          <mxGeometry x="769" y="460" width="120" height="60" as="geometry" />
        </mxCell>
        <mxCell id="oiUNjmwWHy3AyIHxd3Ki-38" style="edgeStyle=orthogonalEdgeStyle;rounded=0;orthogonalLoop=1;jettySize=auto;html=1;exitX=0;exitY=0.5;exitDx=0;exitDy=0;entryX=1;entryY=0.5;entryDx=0;entryDy=0;fontFamily=Helvetica;fontSize=14;fontColor=default;" parent="1" source="oiUNjmwWHy3AyIHxd3Ki-32" target="oiUNjmwWHy3AyIHxd3Ki-37" edge="1">
          <mxGeometry relative="1" as="geometry" />
        </mxCell>
        <mxCell id="oiUNjmwWHy3AyIHxd3Ki-32" value="满分允许进入" style="rounded=1;whiteSpace=wrap;html=1;fillColor=#d5e8d4;strokeColor=#82b366;fontSize=14;" parent="1" vertex="1">
          <mxGeometry x="683" y="560" width="100" height="50" as="geometry" />
        </mxCell>
        <mxCell id="oiUNjmwWHy3AyIHxd3Ki-33" value="不满分重新答题" style="rounded=1;whiteSpace=wrap;html=1;fillColor=#d5e8d4;strokeColor=#82b366;fontSize=14;" parent="1" vertex="1">
          <mxGeometry x="859" y="560" width="100" height="50" as="geometry" />
        </mxCell>
        <mxCell id="oiUNjmwWHy3AyIHxd3Ki-40" style="edgeStyle=orthogonalEdgeStyle;rounded=0;orthogonalLoop=1;jettySize=auto;html=1;exitX=0;exitY=0.5;exitDx=0;exitDy=0;entryX=1;entryY=0.5;entryDx=0;entryDy=0;fontFamily=Helvetica;fontSize=14;fontColor=default;" parent="1" source="oiUNjmwWHy3AyIHxd3Ki-37" target="oiUNjmwWHy3AyIHxd3Ki-39" edge="1">
          <mxGeometry relative="1" as="geometry" />
        </mxCell>
        <mxCell id="oiUNjmwWHy3AyIHxd3Ki-37" value="校验入仓" style="rounded=1;whiteSpace=wrap;html=1;fillColor=#dae8fc;strokeColor=#6c8ebf;fontSize=14;" parent="1" vertex="1">
          <mxGeometry x="380" y="555" width="120" height="60" as="geometry" />
        </mxCell>
        <mxCell id="oiUNjmwWHy3AyIHxd3Ki-39" value="" style="ellipse;whiteSpace=wrap;html=1;aspect=fixed;rounded=1;strokeColor=#b85450;fontFamily=Helvetica;fontSize=14;fillColor=#f8cecc;" parent="1" vertex="1">
          <mxGeometry x="230" y="557" width="55" height="55" as="geometry" />
        </mxCell>
        <mxCell id="oiUNjmwWHy3AyIHxd3Ki-48" style="edgeStyle=orthogonalEdgeStyle;rounded=0;orthogonalLoop=1;jettySize=auto;html=1;exitX=0.5;exitY=0;exitDx=0;exitDy=0;entryX=0.5;entryY=1;entryDx=0;entryDy=0;fontFamily=Helvetica;fontSize=14;fontColor=default;" parent="1" source="oiUNjmwWHy3AyIHxd3Ki-42" target="oiUNjmwWHy3AyIHxd3Ki-27" edge="1">
          <mxGeometry relative="1" as="geometry" />
        </mxCell>
        <mxCell id="oiUNjmwWHy3AyIHxd3Ki-42" value="題目" style="rounded=1;whiteSpace=wrap;html=1;fillColor=#d5e8d4;strokeColor=#82b366;fontSize=14;" parent="1" vertex="1">
          <mxGeometry x="1020" y="445.5" width="80" height="29" as="geometry" />
        </mxCell>
        <mxCell id="oiUNjmwWHy3AyIHxd3Ki-49" style="edgeStyle=orthogonalEdgeStyle;rounded=0;orthogonalLoop=1;jettySize=auto;html=1;exitX=0.5;exitY=0;exitDx=0;exitDy=0;entryX=0.5;entryY=1;entryDx=0;entryDy=0;fontFamily=Helvetica;fontSize=14;fontColor=default;" parent="1" source="oiUNjmwWHy3AyIHxd3Ki-43" target="oiUNjmwWHy3AyIHxd3Ki-27" edge="1">
          <mxGeometry relative="1" as="geometry" />
        </mxCell>
        <mxCell id="oiUNjmwWHy3AyIHxd3Ki-43" value="选项" style="rounded=1;whiteSpace=wrap;html=1;fillColor=#d5e8d4;strokeColor=#82b366;fontSize=14;" parent="1" vertex="1">
          <mxGeometry x="1120" y="444.5" width="80" height="30" as="geometry" />
        </mxCell>
        <mxCell id="oiUNjmwWHy3AyIHxd3Ki-50" style="edgeStyle=orthogonalEdgeStyle;rounded=0;orthogonalLoop=1;jettySize=auto;html=1;exitX=0.5;exitY=0;exitDx=0;exitDy=0;entryX=0.5;entryY=1;entryDx=0;entryDy=0;fontFamily=Helvetica;fontSize=14;fontColor=default;" parent="1" source="oiUNjmwWHy3AyIHxd3Ki-44" target="oiUNjmwWHy3AyIHxd3Ki-27" edge="1">
          <mxGeometry relative="1" as="geometry" />
        </mxCell>
        <mxCell id="oiUNjmwWHy3AyIHxd3Ki-44" value="分值" style="rounded=1;whiteSpace=wrap;html=1;fillColor=#d5e8d4;strokeColor=#82b366;fontSize=14;" parent="1" vertex="1">
          <mxGeometry x="1220" y="445.5" width="70" height="29" as="geometry" />
        </mxCell>
        <mxCell id="oiUNjmwWHy3AyIHxd3Ki-51" value="h5页面" style="text;html=1;strokeColor=none;fillColor=none;align=center;verticalAlign=middle;whiteSpace=wrap;rounded=0;fontSize=15;" parent="1" vertex="1">
          <mxGeometry x="749" y="185" width="160" height="30" as="geometry" />
        </mxCell>
        <mxCell id="T5cJn1b4fMxQ0cZrbBGq-5" value="" style="swimlane;whiteSpace=wrap;html=1;strokeColor=#6c8ebf;fontFamily=Helvetica;fontSize=12;fillColor=#a8dadc;startSize=40;" parent="1" vertex="1">
          <mxGeometry x="140" y="180" width="1160" height="480" as="geometry" />
        </mxCell>
        <mxCell id="T5cJn1b4fMxQ0cZrbBGq-7" value="现场操作" style="text;html=1;strokeColor=none;fillColor=none;align=center;verticalAlign=middle;whiteSpace=wrap;rounded=0;fontSize=15;fontFamily=Helvetica;fontColor=default;fontStyle=1" parent="T5cJn1b4fMxQ0cZrbBGq-5" vertex="1">
          <mxGeometry x="230" y="5" width="100" height="30" as="geometry" />
        </mxCell>
        <mxCell id="T5cJn1b4fMxQ0cZrbBGq-10" value="h5页面" style="text;html=1;strokeColor=none;fillColor=none;align=center;verticalAlign=middle;whiteSpace=wrap;rounded=0;fontSize=15;fontFamily=Helvetica;fontColor=default;fontStyle=1" parent="T5cJn1b4fMxQ0cZrbBGq-5" vertex="1">
          <mxGeometry x="639" y="5" width="100" height="30" as="geometry" />
        </mxCell>
        <mxCell id="T5cJn1b4fMxQ0cZrbBGq-11" value="战场精益管理系统" style="text;html=1;strokeColor=none;fillColor=none;align=center;verticalAlign=middle;whiteSpace=wrap;rounded=0;fontSize=15;fontFamily=Helvetica;fontColor=default;fontStyle=1" parent="T5cJn1b4fMxQ0cZrbBGq-5" vertex="1">
          <mxGeometry x="940" y="5" width="150" height="30" as="geometry" />
        </mxCell>
        <mxCell id="oiUNjmwWHy3AyIHxd3Ki-2" value="" style="endArrow=none;html=1;rounded=0;exitX=0.434;exitY=1.006;exitDx=0;exitDy=0;exitPerimeter=0;entryX=0.432;entryY=0;entryDx=0;entryDy=0;entryPerimeter=0;" parent="1" source="oiUNjmwWHy3AyIHxd3Ki-1" target="oiUNjmwWHy3AyIHxd3Ki-1" edge="1">
          <mxGeometry width="50" height="50" relative="1" as="geometry">
            <mxPoint x="580" y="480" as="sourcePoint" />
            <mxPoint x="638" y="190" as="targetPoint" />
          </mxGeometry>
        </mxCell>
        <mxCell id="oiUNjmwWHy3AyIHxd3Ki-41" value="" style="endArrow=none;html=1;rounded=0;fontFamily=Helvetica;fontSize=12;fontColor=default;entryX=0.741;entryY=0;entryDx=0;entryDy=0;exitX=0.742;exitY=1;exitDx=0;exitDy=0;entryPerimeter=0;exitPerimeter=0;" parent="1" source="oiUNjmwWHy3AyIHxd3Ki-1" target="oiUNjmwWHy3AyIHxd3Ki-1" edge="1">
          <mxGeometry width="50" height="50" relative="1" as="geometry">
            <mxPoint x="760" y="350" as="sourcePoint" />
            <mxPoint x="810" y="300" as="targetPoint" />
          </mxGeometry>
        </mxCell>
      </root>
    </mxGraphModel>
  </diagram>
  <diagram id="NlosD4g9BLkm-p4J5aDJ" name="第 3 页">
    <mxGraphModel dx="1434" dy="740" grid="1" gridSize="10" guides="1" tooltips="1" connect="1" arrows="1" fold="1" page="1" pageScale="1" pageWidth="827" pageHeight="1169" math="0" shadow="0">
      <root>
        <mxCell id="0" />
        <mxCell id="1" parent="0" />
        <mxCell id="VGhHLS6vnKNPSEnaTAmS-33" style="edgeStyle=orthogonalEdgeStyle;rounded=0;orthogonalLoop=1;jettySize=auto;html=1;exitX=1;exitY=0.5;exitDx=0;exitDy=0;" edge="1" parent="1" source="VGhHLS6vnKNPSEnaTAmS-26" target="VGhHLS6vnKNPSEnaTAmS-32">
          <mxGeometry relative="1" as="geometry" />
        </mxCell>
        <mxCell id="VGhHLS6vnKNPSEnaTAmS-26" value="现场刷身份证" style="rounded=1;whiteSpace=wrap;html=1;fillColor=#dae8fc;strokeColor=#6c8ebf;fontSize=12;" vertex="1" parent="1">
          <mxGeometry x="580" y="300" width="120" height="60" as="geometry" />
        </mxCell>
        <mxCell id="VGhHLS6vnKNPSEnaTAmS-28" value="" style="shape=image;verticalLabelPosition=bottom;labelBackgroundColor=default;verticalAlign=top;aspect=fixed;imageAspect=0;image=data:image/png,iVBORw0KGgoAAAANSUhEUgAAAUEAAAHaCAYAAACer/uxAAAAAXNSR0IArs4c6QAAAARnQU1BAACxjwv8YQUAAAAJcEhZcwAADsMAAA7DAcdvqGQAAHhpSURBVHhe7b13nBTF+r79/vH9nWNAAcEE5kheMuoxH9MxHxFFRAQkiETJOeecc845Z8kKqICgYgIURBDxkONGnreuWmptxull2R3Cbj+3n9uZ7qpONTzXPFXdO/X/yVkdPHhQrVarM6z9pBBUq9WBsJ+SIPjrr7+d411qtVqdgeynJAg2a9njHDdt2V2tVqszjP2UBMHrbihwjq/Jml+tVqszjP3kgWDUOb7WgFCtVqsziv2UBMFMppLX4XaiVqvV6dV+SoJg6AZXm/Tx6hv+cmi5Wq1Wpyf7yReCVxkIXmXgZ+3pV4fWU6vV6vRgP/lD0AFQIahWqzOA/ZQ8BA30nBWCarU6PdtP/mOCBoJ2XPCsFYJqtTo920++EMQOfF6Hq+d1Suup1Wr1pbSfIgrBlNZTq9XqS20/JQtB66yJBmxX35BPrqGbbMxypiz5jPOactYbAz/em/XX2O3+giJ1rzV1rzHl12ahzLxmNdtmyWN9jSm7mm1t/bPH9Tkfyq8x7zmXa63D1FOr1WqP/ZQCCBrIZEn0P28AVLnlZuMiN+aTV3IWltdyFpIS2XLJbVkelMwGZncZkBW5Mb8Uujmf3JU9r1xvtr/JbFcgW24pflNuyX1zlNx6Q5TcnT2XPHZLHnkpZ3559rZ8UjDbg3Jj5gfN/jnGWRCGPR+eYWTMUiGoVqtTbj+dF4KJmRkZWl65LnMBuTP7/fLh3XlldP6iMr9gEVlUsLBMzFtE6t0VJVEGeu/kLChj8xSXEQXyy9t35ZXbDTxL3hElA/IXkxH5HpIqtxeSkgZ8bXMVlJlmH4uiisl841Fmm9K35THAzHX2eN7zIGs8m1FmM9lntsSM0p7b2azUe87n2p1/ou2+wtRLvM5wTrz2pOMlY799hq5Xq9WX3n46PwSBCF1dA56cWaOk3D2FZGGRorK+SDGZV6CQLIsqJJuLFpEpUQWlwm0Fpdnd+eXzosVlQeHCUvGOB+WFW/LK4IIlZFXRR6XPg8XkHZP1tctTSFYULyxrihaW6QXzy7LCUbLB7KNX3ijJkz237TrT3U08ByBClxuo5JNnX3lfqlRrLLfkLGay04K2nj9oWA/0TEZ6YwHJnrOoAWj4ug5Y+GpzfOdrTNZ7jQWz6bKHqeNd57c/73q1Wn157KcUZoImkE0Glsd0X4fleVg2Fysic/MXlOo58kin+wvLumJFZXbBAlL/3ijpkiufgWIxmZuvoNS/M5f0eCBKVhsoDjPLL+XIK28aUE4xmd9XxYrJkNz55IMcD0jf3EVkrakzyAC1wE15DQQ5pjsH895A7BrGEc051GzQRtat+0oKRD0vWbIXN3A2IAwDmutvLCSZbyps3ueTzDcXkCeeLyvtu42RqOKvJl1T0rWZ+tdlj5Lrbypotiko2W8rLvfmeUaKPlpKXnyjsgFvObnrwcdtXQe+TNkKSDYD4iKPvCmFHnpDsucoJtdli5IsNxeWG24tavZXUK7O7A9JtVp9ae2nFN0YIYCvM1nYY7fkliWFH5aNxQtJv3yFpaDpGj9/Sz6pdXtekwXmktK355IR+fMbwBWR5fmjZErefLK6SGGZka+IlMqZW3KYrKrM7UVkQcGissXUGZMnn5S8+V4peUsBqXl7AXkt54Nym4FepiyFzHELnj0HAALUCst9eZ+Ubv2Gyc8/75ERI2fJG2/XlatNdurtOvP+hluLS8l360uvgdMkb5EXzLb55en/lJX5SzZIqXc+tj8QQQZ5lQHk1QawN9/xsLxRpo50GzBOegyYIANHzZL+w6dL36FTZcyEebJ02efSrGU/ueO+xw0EEzPCt8p/LN0HjZclqzbKxGlL5e13a8tHNTvI4OEzZdyUT+Sxf78nmW802erZ9lMIqtWX135KQSaYeCOCu7mv3Zpb1hV/SDYWLSRtchWSm7PlkptN2Z0GDHdkzSXP3ppLphcqJN8UjZKvTFd3o3ndaF673ldE8hrgXHd9PnkxR5SML1hENj1URNabsgEFoqTUnXnlnptySTazr0xZi5hjmQwuqwGhPT5/sVLAZFylpGuv0fLND9tk3fqN0q37UHnqmXcky43A0sCMO80WmAbYJgsr9uib0mvQFHmpZBXJenN+eeix12XqjBVStVpLKVXmY3n9rVpyZ66nkiBYpVZ7GTVlntRp0lHadO4vQ8dMl/HTFkvTZl1lypT50rv/RLk3978NBE332ByjYaueBpSTZc7CtVLr47bywovvS/2GPaRt+/5SsXJDyZ3/WbnenIcDIA5tW7VafenspxR1h7lbm8W4Ss5csqGEgVfhQlLzbtYxXhZlQBIl2U1G9vateWW1geCPRfLLdyUKy3fFCsi3xQqa7m6UFLoxl1ybOY/cc0Me+fC+KJlfuITJBovJF8UKyfiowvLibXklO8cz+7rmBgCIoyTrrUUk2+1F5f58T0m5CrXku+9+kJ49+0nTph2kY4eBMmjwNHm7XF257kYgyE2TKMlT+GX590sVpMi/XpaHnnpdylduLP9+9h2ZNm251KvXTnr2GWPgtU5q1Otkur+mC3tLYSlTsZH0HDxWKtdoKuOnzpdPVq+Xlu16yRNPvi79+o2UTl2HJmaC5hiMk9aq11669hgmo8bOlXfK1pTn//OulC33sTmvztK33ziZOHmx1KjTQW68rYQCUK2+AuynlI0JZskvt2QpIG3vjZLND0XJCgO60jnyyK1ZcsmDJgO874YH7A2Nj+/MIxuKRcnW4vlkk+kyry9WWLYUzyuTCuSTZ3PmkVuy3Wfq3StPZbtXyud8QEZGFZQvDQQ3ma5xt9xFJfctUaYrXPhsdzjxh11fKVVLhk+aL2MnL5QVKzfIxs83y9bvtsmcOUukdq3msnrNJlm+dovkvMfAhmzTZF8vvlFdFiz/St6v2khKlf1QFi5dL+8ZQK1Yvkm69xgsg4dOkHdNd/ahx9+UTNkZMzTXU76BdOkzXF4v9YGB5HD5euuPMmX6Qnn55XLSsWNfad2+j9x5/xNyTTbTHgaC1Wu3lqFDJ8tn5tgz56yQoSNnyPTZn8iGDd9J8+ZdTcZpwPv8OyYL5VoUgmr15bafUnxj5M4b88uwPEVNZpdf5hUsJi9lzyNP3FRE+hUoIb3yFZOK9+aV5vfnls0m8/vCwG9M3ijpcl8+WVakgHxSPEo+vDe/lLy9oPTOX0z65n1Y3siRT8rmeEBmFygoXxsITsj/kDx8U3HJnLmI6RLzw65kdrnksWdLy9LVG+WDqg1k7NhZMnv2Ivlt9z6ZMGmm6XI+JX2HjZHp8xZLtltN19OAmge5c9z1mJQ22WGv/mNk5BgDp1lL5K13qsjaL7bKJNPlXbRkjTz273ckk+lKX2W68tffXFDeKVdPunYfLiXfrCQDB46X5Ss+NaD9RBo16CQ9TcbXsetAuS9vYveZu9RAsG/fUTJrzlJp3LyzPPXc+1Lhwyay6JNP5c23PpKoQs/IzTkM0AGgQlCtvuz20/khaKCSyWRYeW/KJVMNqL4vXEAm5S8oz2S9S8rflk9WFC9qoFhUGt9TQHrlyWe6y4VlVlSUlL3tHnkbyEUVkbVFCkuXuwtIkzsKyQoDzbl5i0nJm/PKC9lzybjcheVr070emaeIFDddU47HXeBM2fKY9ybDLPKsLFi2Tsp/UEdmzVome/cekJ+27ZBhIydKnvzPSb9hE2XE+KnmHE3XPDPbF5AbbikqL75a3mSAn8t/Xq0oBYu8Ivc+8Kg0MRna/EVrpEPnAXJDzsLyjyz55J8GUFlzFJX3KzWRwUMmy1tvVZb27frIkiWrZfny9TLFZKBz5y6X7r2HyQP5/21/UYe/bGnQpIs0atRRHv7XK9KoRSdp1qavvFO+rsyav1z69J8oi5d9LpU+bCzZeZRHIahWX3b76bwQ5GYDEHzwxlwyPOoRk+kVluWFH5JeDxaSKQWKyMaiRWXEg1FS7aZ7TLc3Sr4sUVSG5ysg/zLLTxtwjs9TWDYXLSHDHiwgTe/OL/PNNp8b6A3NVVAGGBiuYlywRAlpcU8xyW2Oc73J5jgeELw224OSv/gLsnjFeunWc5jMnLVcfv31gGz+5icZM2G2PP7UuzJz3nIZOGy8AaCBoOlKX3tDQSlQ9GWZPnOZjJu4ULLeaiCUvbDcfu+j0tKAaumyL+XRJ0sZ+OWV/zMZ5z9viJJb7v6XfFS7nSxcuE7GjJkl48bOlv79RxmPlB7dB8rixSul3+DRZyHIjaK80rHbYGnRooc88tibMmbSAqlZr73JJqvLrHmfyHP/KSv9TDY5adoyuT/vs0nZdPj2VavVl8J+ShEEyWRuzJpHqtyeRxYXK2q6r/8yYHtENhUpKnMLPiSVbs8rpW+923R7S8jGhx+RrnkKyAM33Cn5s98nHU12uKnYQzI1XxGpe3c+GWDgt85AcaMB6abCJWR18WLSI09BKUH2Z451Fc/9GQheazK7a294UEo8/oYsXfW56c5WlhdfKmO6qKuk4oeN5OHHXpEPKjeTHTv3mCysh/2zvmuymK50tkLy7Ivvy8ZN26RS1aZmf4Uk250l5J0KDWT56q+lfoOukvWmQvIPk839n7k+IHjH/U9K8zb95dO138jw4VNkxPCpMmnSPJk3b4UsWLBctnzzvQwYOsZCkEdyuFkzdNRUadWmj+Qv/Jw893JFefOdjw0oR8nyNeulSImX5K57H5JiD5W0WSntaCFoAPo3n9PWarX6YtlP54cggWqys+szF5DbDTieuTm/fJizgDS4t5BUv4PlPJLTwOrBWx+Uknc+KO/cnlseMeuyZ35Abs7ygPz7llxSNecDUipHLilwax4pfGtueefOwlLXQKL2XUXlvznySf4suSVr5rzy/7IbWGTjRxWwAaEB2213Pyaly9eTnHcXk+zm2LVrdZZcpot8b4F/yWLTXT14+KQ88Vx5CxkeYOYvQm65o6i8WuojuTfP43JfnsekSase8vlXP0nj5n3kphwlbDZ3lYHfVeb6GEO87Z5HpGqNliZ7GyvlyteS19+oJP9+rrQ8+fSb0rxlT9m45Sfp0G2ArXet2f91N+aTjxv1kNJl68mtt5cw5xklhUu8ITMXfSpTZq+Q3AX+LZmy5JFMmQ3YzTXYMc4wVgiq1ZfOfvKFoOu+8ZzgNaaLecMdL8g9j1aXXM82kfseriE5H3jdQOkxyXzLo3L9PS/KHUUqSp7HGkjuJxrLXUWrSrZ7/iP/zFlc/nn7Q3LTgy/KfcUrygNP15MHn64r9xR9T3Le87zcePMjcv1tj0j2B56XLDkel+uyFjLH4q9DcCIEyUIzZcttssRcBii5JLMB5f9lB5i55amX35dqH7ezf6HBufJ4TCYDNwBzwy2F7E2VCTOWydyl6+TdCvUlm8nKrslc0GZzPNbDjzDw+A+P1tx8e3G5/S5zPibjzWSgnMl0r68zILvnvqfk3XKN5cnnysr1NxZMBG12kxnnKCo33FzIHAtgm1eThRZ56E3TFX/RZJpmn+YaFIJq9ZVjP50XgjhLjoclz7N1pdjbvaXYW0PkoTcHS4mSPSXq5baS59Xmkr9UWylSursUf3uAPFJykDzyRj8p8npnKfJyK+MOUuS/faXI2wPl4dKmrNRAKfpWHylUspvZvoMUfLWd5HmurmS/+zm53mRU/FjB1V4I8mdqWR40ziVXGTj9w5T9n1n3fyYr/YeB0TU3/fVAsoMg8ybT5S3+aEl56Y0qktNknezzqutNBmic+Cs0iRB086jwGNA1mc3xTMabiXHJJLM/Azmz76sNAJN+Rsz4OmAG5Eydaw1cr81sXq/PY816W56MFYJq9aWzn5KFoPONdzwmUf+uJQ88Xkvue7ym5H2+oeR/o7sUKtVPipbsJ8Ve7SGFn28p+R6vLbmN8z3bwqzrKcXfHCDFS/aVoi+bLuzzTeSex2tI3ifqSNR/WhowGmi+2U8Kv9xN7itaUbLe8pCBgoGfycoskCwAHQS56ZFH/mlA9v8M/Hi9CluAGTCZOjjx3IH3WSddA3UKyVUmM+ORGJsBnjXb232Y/fIjCfY3Ds37v8wy55X/LAQTs2MAZkFmQJmYsSbWv+Z6c7zrzXu7LrFesjb7U6vVF99+SnZMEIDwel32wpI9xxMmaEtYZ7rpMcl+3+tyZ1RZuaPAu3Lr/a+Z7uejJmMqbjKm4nL9LY/JjWbdXQXLGb8rN9//H7nu1kfk6uzFDEiKyfWm65vjwZflnqg3JeeDr0iWWx+2YEk8XuIxz3Xi+sQfUk303+ukxH/f/1/7c2XnlnvX/+3Y54DsbD23zmvvNmq1+rLYT+eFIL7aZDVXM5ZmbB9DyVrYZl6JY3fGZEBkQmxn6l9l3v/DZFX/MBkUj6JQRvfxmsymq2u6ildnzm0yslwGKPzZXW6zL+qEwketVqsjZz8lC8EkAyhABwwN/K4y5hGTf5iu6z9N9mN/jcXC7qxNF/EaxvcsPM17xtoM6K41EASELCeWn7VmS2q1+iLbTymDoO3qJWZ7iZDjjmji3CBJY2ie+nYMjgzyBpP12W3+Wm8zS+u/xuVS371Vq9XqlNlPKYRgqIFiqJOrE1qmVqvVl9Z+SiUE1Wq1On3ZTwpBtVodCPtJIahWqwNhPykE1Wp1IOwnhaBarQ6E/ZQEQfdgtFqtVmdE++mvTDCboaVarVZnUPspCYKvlfpIrVarM6z9lATBX3f/qVar1RnWfkqC4OEjx9RqtTrD2k9JEDx09FiIj4b4QspDy9Ja7i272OWhZecr95Zd7vLQsvOVe8sudnloWVrLvWUXuzy07Hzl3rLLXR5adr5yb9nFLg8tS2u5t+zv5X5KguCRoydCfDzEF1IeWpbWcm/ZxS4PLUtrubcsreWhZWkt95Zd7PLQsrSWe8sudnloWVrLvWVpLQ8tS2u5t+xil4eWpbXcW/b3cj95IHgyxOfu4NyycCeQXDnL3nJvWSTKvWUXem7nK0/ruZ2v3Ft2oed2vvK0ntv5yr1lF3puoeWhZVfSuYWWp/XczlfuLbvQcztfeVrP7Xzl3rILPbfQ8tCytJ2bn5LJBI+FOLlydwLOLEey3FuGvWVpLU/ruYWWe8uwt+xCyyN9bqHl3jLsLUtreVrP7Xzl3jLsLUtreVrPLbTcW4a9ZRdaHulzCy33lmFvWVrL03pu5yv3lmFvWQrGBE+cOB3ikyE+5XFo2eUuT67sSi9PruxKL0+u7HKXJ1d2pZcnV3allydXdnnL/ZQEwbi4+BDHqdVqdYaxn5IgqFKpVEGUQlClUgVaCkGVShVoKQRVKlWgpRBUqVSBlj8Ez5wR91+CeZ+QkCBnMO8p87FXoeu9y6EOp3D1Qp3Sel6rVCqVU1gIgokzZ+KtgV98fLzExSY+NhOTYF7NOtan1A48vGcf7M+Vuffh5C0PZ7ff2NjYc/bLa+gxvOtUKpXKKTwEDVtc9mfBERMnsTGxEh1nbJZj4uLl+IkTsm/fPuv9+/fLoUOHrN26P/74w74ePHhQYmJiLLD27t0rO3bskOPHj9v9HjlyRL799lu7vcvSnNHhw4fP2Z8zywcOHEgCGvv//PPPbX3e//DDD7Jnzx45Yc6R199++82+ci4c1+1fpcooCo0fTHyEWx8JexWu/HwOJ7964dY7R0L+EIw/YzO+0zGn5MT+P+TPDV/IyegjciouRo5Hx8j3338vgwcPlv79+0vPnj1l/PjxsnDhQhk0aJB07txZWrVqJQMGDJCZM2fK77//brO1RYsWybx58+To0aMWRps3b5Zp06bJzz//fE7G5i5u0qRJ0qtXL+nXr589jjPHGz58uERHR9t6ALFFixaydu1a+e677+xx58yZI1999ZW0adNGBg4cKH369LHHUgiqMqL4N82/7dOnT8vOnTvlyy+/lB9//NEmGu5hYd4THxs3brTJBAkD60+dOiU//fSTfPHFF3abkydP2n0RkyQOmzZtsibJceu94tjs69dff5V169bZfRDv1GX/bEess48///zzb9s7OQaQtMAMV491JD5sz/kfO3bMrrvoEIyj2xt9Wn7fsEEOTp4he5o3kz1rFstpc0Eno2PtBc+aNUvmzp0rXbp0sRe/a9cu2bJli4waNcrCh/dkfmRkXMS4ceNk6dKlNiOkcUePHi116tSx2wOuoUOH2ozNXRwwBWZcOB+S84oVK6Rly5b2w0PffPONvP3229K9e3cL5mrVqkm7du1k1apVdh8Ae/78+RaervHch8+ySpXexb9peliffPKJ/bdPMtKhQwcbcwAP+IwZM8bGWrdu3WysEDcAj2SD9UOGDLHJC4kLwCRmiWMSj759+0rr1q3tvrwQc7G0wXCiadOmNuFgG7jAemKduOOYJDQ9evSQX3755ezWiWIfmFjctm1bUtyzPetJZrp27Wq3pYzr8HIirfIdE0yEYKzs/+pz2VfvY9n3xsuyb/ZkOXX4oESfjpUDhw7KgkULpZVpmFmzZ9muKN8kNBRZ2ccffywdO3aU2bNn24xt5cqVMnbsWAsmMjIywt69e8uIESNkyZIlsnjxYmnUqJHtHruL69Spk+3msr1rKAxYOY6DIJlljRo17IdJNtq8eXOZMmWKrF692p4DMAbYNCIfIPsAjGSHAFalSu/i3zUAIZng3z4JCbEAfIiDZcuW2XgjDsnUgMnkyZNtdgU0gSfbLF++3MYuoCJhYfutW7fa3lqVKlXs9l4I8p4kp1mzZknHZR/169e3iRL12T/H5FgkSDDAK/ZBBgtIqVuyZEnbsyS7BNLAExBzHvCBBIhEiGwzEvKFYHy8SU1jEuTkLz/LDw3qyR99O8tvM2ZItDmpw8dOyIavNsnQ4cOkes0a0sVQ+rPPPrMwg/o0+AxTlwseOXKk/TbgImrWrCkNGzaUYcOG2WWgRUMBMVJmGuDrr78+B4J0cWlkLtiZBvVCkPr16tWz+wS0vOdD/fTTT21WyPH40B0EEedEHdJulSq9ixigdwUo+DftsjP+3ZNgEANkh2R3xBCxR9ZGvNFVZVu2ISmoXLmyBSr7IT4BFBlgmTJlbEwRQxwPsw37fPPNN203nGyO7Ro0aGAhTJJDNkrWSZLEeP3//ve/pO0x+yOLpTdJsgLkJkyYYM+TumSnJFPEO2Dkmtgn2Wok5D8mGJcg0fFn5MTJ43Jk+1aJ/n2XHDMp6OmYWNMnPymbNn8lw0eOsBDs1buXTVdpbKAH6XllDJDUlSyRxuU92RffCGRiXBiN4y4O6LFMwyCWa9euLU2aNLHfNM50oVnnhSDfPACQRqQMENOogI8Ph281AO32zYfFh6vdYVVGkIOJSxRIKhgaIoYAGnHAODqwoR6xSYZFmduGsTbqsZ7uM7HBerqmH330kTWAYz37cMdjH6+++qrdnvNwCQ0ApFdGvLIMzOiZkWWyD+9+gCnnBoxJZhwE2SfbwhOAyE1Ukhy68yxHQmEhSCqYEGcaIM6QPjrOAOq0xMQaR5+Wk+bET8fEy7ETx+XLjRukRauWMnfeXDtmQOrLyQIcvmUcBIHN7t27Lb35duA9F0CWRz26q3R5IXwoBBmfAKDbt29PcuiYII1Yt25duy8aj28hUvI1a9ZYaJLxcR5eCLp/NFilSu/i37P7Nw3AiDXG5hhOoksJNIAgvSrq0GtzEGSZm4tu3I94IylhPXCii0tCQU+O+AJyxCVmrJ36r7zyioUY50B5+/btbfZJLBLHZJQkPxwTODK2T28RkyFyXkCRmKZL7yDI8Yl3epAkOsRzxYoVLSgvOgTPJJxNV002yOMy8QmG3KZR4s16zLofTLe0fccO8svOX2yaSwbItw/wA4YAj5sfZIJcFCffuHFjW4dMkPV8WACKRgrNBIHi+vXrLUT5QJz54LzdYY5dvnx5O7A7ceJEO6ZBQ5IV8iGQIfIN54Ug2SFjGLyqVOld/LsGGGRqxAHZE3eB3Z1eusJACUCxTGzw1AVjfWxDrGG6xsQV+3KPvpGgEIOM5deqVcvWZ6wQcyzG6F977bWkO7/AiZsk1GefjD1yTPZFfBK7dNWJSXqQ3ESBBV4IUo9zYB3DZXTzSWo4P+AOT1gfCYWHIIIVwND6r/67WwaC3//4g3Qw6S19c0gOwAAaFzB9+nTbJcV8EEAPoLlG51sD0vOeMsYVSJVDM0F3Y8QrskFSawdBGpQPlEyQ4/ONxngksAXEfJhkqXwLuX2zD0DNq0qV3gV8+HfOv3sASEwRH8QYIKFLy40RsjZ3s4EEha4poCJmSC6AHfDB7AvIORACJ4aaqMM6DLzwhx9+aJMgMkiOTdeZ5GTq1KkWdqzn0RdgTJxybm5bWOCAx7m5TNCtc4/f0VUmaSErhCuUR0L+EExGgISs8HtzkUDw6PFj9iL5JmDAlYvmm4bxPwZeuTBuRAA0LogPiRSXhmU7GpUL5DY9xPdCkOyNbxKg6kwjervDAJgPmDvOpNx8UNxFYuyA41IOgNkX/1gQ/zgciFWq9C7+XdNlLVu2rLz88su218XdXIDB3WEARFwSEzyFQbeSZwnptfF4GXdkP/jgA6lUqZJUr17dwpEuK+9JODBlxBdgIkadiSGGnCpUqGAfy2EbenjENfugN+bG83lyhHXe7Z25BgdBOMF+WQcryCzJABlfJP4ZUnOxnFalCoI0wq+7f5V+A/pLoyaN5YQ5cTIqxh0wAAJqjBmQjdFwkB3IkSLz3I+7G8W3BvUAHnCk8bk4GsV9Q9FtdeMHmH3SmA6CpMk0EBkpBojsiw8EMNOg1Oc5xEg1nEp1JYl/1/xbJ9YYY6N3RHeY8Xbu7JJw0OuijHihRwZwWOfdxm1HgsA2jAdyR5inP3gP2EJjiFhlX8Q9Y/F0Wd0fRHj3QSICvEh8won9wASGxkheHGxJYngihH3ADrrb7IOySChVEKQR/tj/h01/gRgnTloL4Xl1BKch6ObSoAALc/Lu4ux+zAdE4/DB0EA0Guspp1H5kGh49ukMQOk2sx/Eh89x3D4pd0+d8+Fwjnyw3j+1U6kykvi3j4kJr10shZa79bxi7zY43DbedV65dewHFoQeE4fuI5xcmTsnt+zWse/kziO1SnV3GBgBLF45MU6Q994Tdet5dRfllbswwIhD6zrohW7n6rv1bEM95Lbz7s/tx+1bpVKpnFIFwcstQOfsXfa+D2eVSqUKlUJQpVIFWukSgiqVShUpKQRVKlWgpRBUqVSBVqogGG68Ta1Wq69k+ynVEORRE7VarU4v9lOqIeievVOr1er0YD8pBNVqdSDsJx0TVKvVgbCfUgVBlUqlyihSCKpUqkBLIahSqQKtdAHBC+nfq1Qq1YUoIhAMByns5FcWuhwqVxb6vI93u5TYuy+VSpV6eePKxVPounDrQ5e9DlW4On6OhCIGQQcofrMPe0/QW+4ghlx9v4vxbuPncPt25+Bd5+r5HUulUp1fLqacUWgMhlsfuhwan16Flvs5UrEcHoJm3xzAz0yydM6yOSF+wZlfiXa/LB2unF+a9v5yNL8YzS9A85P43voYsY2bjMX9dD5mmZ/cdvvhx1P5SW5+uZr3/Mo0ddi/dzIYfuGaxkWhx1KpVOcX8UNcul9pJ354Jeb5JXfijTpuvYtBV5cY5efxWQcvmFfYlTlTzq/Fs08vA5zZxvujymmVLwQ5MSZTiouJk9PHDsrRnTvtScXFxEtMfJyFGT9jz8lifgqfuUCYS5iLYx0XA6xoFCDFDFFMpOTmKeCCmJiJbRwcXYMgfnKfCZuYko9JlJyZk4S5jV1DAEYmkWE+BeYzYLY7ZpdjKkDmNmEb9sOEM+wfuQaPVEOqVEEQ8cP8H8zbQ0zv2bPHTqDG/B9MrEY8M+ETc4EQ38CSOY6Je+KVGe2YZ4g6vDLtBfELHF32R2wzVwnrmK8ErsyePdvOOEfsMzmUm04jEgoLQfYdF28AaKB3+Odf5eCaxfJrv55y+Ptv5dTxk3LaXAwXx4kylR9mQmVmsWKSI04YL1iwwE6Q4rIzJkkCSkzqgt0k6sw9unjxYjtnCRM2AUTEREvsj9nmaDBnZpti5iq+JWgIGrZcuXJ2cmnKmVGLKQXZHxM2M0MdM1ixzkGQcwLGLjNUqVTnF/FD8sNkZ8woB6SYf5jJ1olBZoNj0jTmOAaQZHzEPcskJbCCOky92bx5c/vKTHXEPdBj2lBilak+6SWSuBDPsADAMnMdCQ9Tb15cCBoDwXgDo71r1spvHZrIL+//V/ZMHiPHD/9piU5DQGRmgqcxmMOUidWZHY6T5RXgASiAA9jIEMn6gCPfJMwQx2TObdu2tfMGsy+yP7qtyM077DJHZxqMCZwdBJmgien+2AfzDteuXduCkn3RYMxgx7cRQHUQ5NuMxieFV6lUKRO9QWBFEkSiQxYHB+hpMb0n09rS8yLTI26pT12WyRaBIZAj1qnvpsolWSJzhA+sZ9pc6gNF9u0SHGazZOY7epiXBIJxsXFyePtPsq1BNdndqIbsnTNToo8fllOxJnU9+43ABcyfP99O4cdkzUCLbimZIbACOnSNOXG+EZj8mcahIekesw2pMuCjr+/SYi4QCNJ4XDCN6UyDAVAHQY7BtwWTqZMuM0cpgAOCdevWtY0HIL2ZIHB256hSqVImkgeyOYaciGvik6lsARsJDfMTk8VRzuyT1GFKT2Z8xCRMQJPeHdPijh071sKOidqBINsQ9yQvzFkOG4AgWWPVqlWlY8eOdnt4QzIWCflCEFgAutMmnd03d6Yc3/il7P9qswHjaTkZc9peHNNecoJ0Z4EOaTFZIFkhc/6SKpMSk6lRThcWSAEy9s865iKmIYAp43iAlTIHQRqXY1DuzLcC8wiHQpDsj8YnZQawgJfuNik1je+FICDmGypSDalSBUHEMwBjInYSCWKY7Ix4B4CAjZgm4yP+6QKT6ABG7hsw3kcvkV4jyQqv1CVhIQmCDfQgWQcEAR69O/ZBkoPhBdP0Ev+RUPgbI0ZkmgCGrCzOgIIubax5jU9InFAZqtMYAA9q0wDMek9XlCyNtJhy0lt3V3bq1Kn2Jgf7Yt+k04DOfZMwrkCjeSFIg9IAXLgzMOObwQtBxv7I7Bj/I5V2EGQfwJpjeSHIds4qlerCBPSAIL00urQkN2SIxBlxT+JCgkF3mTiEB/TguFnqEibq00Ojd0hCQl24AgcAJENYQBBmwBngSW+S4TSODTAjIV8IIgcJwOHMMkDjpElVSXXJ/uh2koFxc4T+Pjc+gA+DmzSGgyAXzjIXQEZHV5pvAAY6GWz1QpDBUIhPF9l7DnRhvd1hjkGq7DJBzoVG424S58T5ceeKD4LtEZks++ZDUalUFyYgSNeVx964IQLMyPa40UHc0jsk2cGMybOe2KY+YCP2iT8yO7q23GmmHoCkVwckWU/2CDPINklu2I6bqIzlu1hOq5KFoJ8cHIET43+kq9zo4AQBDt8EUNx1bbGDIJkcFOdbgYYjDQaINBCZHDCkPvsnCwSmZJ7umJi63hsj3GYnEwWinAfjBjQ6IKSRScv5pvJCkA+QlFvHBFWqCxfZGhAjEXr//fdtAkL8wgCABQSJeQzcKKd7yxMhJEls++WXX9oeIJDDcIExR+KYcXwSFGKXXh3rSHx4XIanUohf9xRJWpUqCHJhkBgi05Wln09KC3RIfWkYwEjXlAtzmR9ZGnd+SJUZo6MOtKeMrJHt+UZwEKQry/gAg680mDMpN2OC7g4RY440Mg3HuCLwBK6AkfQaWAJTb3eYW/cck8FYlUp1YSK2ACHxzjAYEIMH9L4YvnKZIDEKtOjeEsskSXRn6f2RzLAOwNHlpXcJW+AEscz4I9AkeQKsjB/CG5ZJfEjCIqFUQZCDc/FcLK9cKBkcUOPuMIQGflwMFwxwWEdD0a+H5mSBwI1MjBsX7pEauqleCAIu9sM2zgCPMUEHQVJm0nMalecR2Y5z4UYMt9hpSLbhW4dGVqlUaRPdVXp1JCBVqlSxGRuJEF1dAMg4oevhcc+AuAVgbEdvjUQIIBL33Eyh98gfOpCYkPEBQUDJY3WshyPAkmSGRAlgAtlIKFUQ5OI4EcDHiQAWYAMQuWiWWc8FkAqTibGOBmP8jgsFlnSXWedoD8y8XV++WajHPjmWM11wvjlcXW6vk/lxTLLODRs22LEF1jHY6vbPt4dCUKVKu+jaMr5HIgIMuflJPNLzYugJWBGP7nlcgEYXlpjmPgBQ40kP4pjkCHaQ+fGXJsARFhCrJES8EvfEL/BjnUuUIqFUQTBUnBCPnJDx0SjnAw2ZJKYeDUeXFFgBVwdAxHoHULces437JmCZfXnhCQhZx7a8Zz+ML7hjqlSqyIiYpfdFnBGPwI6ECB4Qa6yHCQhOsExcss49G4xdrAJW13OkvtuO/bENdYjxSCoiEOSkOFEuGruT95ODVXJ29dhXaJk7lnfZHTN0nbM7L8pUKlVkFBpr3mUXiy7mvMspdeh2br+RVEQgiNwJXoyTDJVrkJQc50LqqlSq4CmiEFTgqFSq9KaIQVClUqnSoxSCKpUq0FIIqlSqQCtVEAwd/0ur3Q0VtVqdsR0u/i+V/ZRqCPJMUCTN80ZqtTrjOlzcX0r76YqAYLgGU6vVGc/h4v9S2U+phmC4VFetVquvVPvpihgTVKvV6ottP6UKgiqVSpVRpBBUqVSBlkJQpVIFWgpBlUoVaCkEVSpVoKUQVKlUgZZCUKVSBVoKQZVKFWj5QvAMT1mfSXQ8rwnxEm/sfQI79EFEXkPLvetd3XD1wq13P4nvHG67UHnrqFSqyMrFnYux5Ozi09UPXQ6t53S+8kgrPATNMYEeJxBvHGscHRtjnRAbL3EGTvwdoJvgyM33wd/nMYMckxrx3l0AryyzDROlYOpgJlhhH6xzf1/I/phYhbmNeXV/+8d6JmfhGCyzb9dA7j1m0iam7vSu8zq0vkqlSpmIQWKPmHUxyavjASaWWefinzrEuVvGXn541yPHC8qo58pceaTlA8HEEwd+8XEmAzxxWk7tPySnYs1FxyZITELidJozZsyws8NzMZw0gGL6POb35T0XwHoM0JhGDzNdH/ONMhM9cw8zBSfrma6Pmaeoz5SezF/KFJ0sMzUnM1F9+umndg5h16jeBuQ9x2UWfOY3daAFiMxg5eomXuK5304qler8ggskIV9++aWNQeKVaTWJT6bZJI6ZOhM+uBnniEGm0nQJjuMBsU996nljkffsm3mMmW7XC8KLobAQtIAwJxpjAHjcXOCxVSvk5zbt5PDunyX61Gm7HkpzAcCGWecBG3OHjh49Wlq2bGknV167dq1dTyOMGzdO6tSpYydTZ+L0Fi1a2G2ZmBkzw3yNGjXshTO1HhOys45lGprJ1Wn42bNnWzjS0G7GegyImaR55MiRdkb8+vXrS5MmTaRhw4ZStWpVO2M+jUkDI96zX15VKlXKBBuA2I8//mjjkdgmedm6daud35t5wnm/ffv2pF4b8wUTzwCN6TmBJpO1//zzz3bOcLanLnHsxHGIb+YYpz5llxaCxjGmOxx3Mlp2zpojv1T9UH4r+aL81rm7nPhjvwFgnIUOmRmTInPxzCAPqD788EMLoD59+liznjpkiIBx27Zt0rFjR+nXr5/95ti0aZNtOBqEzJAJmllfu3ZtKVeunFSrVs1CtmbNmhZqAO3tt9+2EGWWe9eVJkMEvl26dLENy7nxbcL+OBb78DYkmSZAJdNUqVQpEzFEvBH/zC9MjJHlrV+/XpYsWWJhR/wCSTI8IEkyRJyzjqSGukDwl19+seuIf0DIvpwcbOEFUCWeLzkE4+NNv9x0f0/v/1W2N20svzWoKYdXLJOY6NMmg0q8cGaaX758eVK6SkrMbPR0kSE7GZ0bO4DqXHinTp3kgw8+sMACYm3atLGZG7PU8y1Bw7Ftz5497Uz1ZInAqm7dujarnD59urRr187CDYC5LJB6ZKKcV/v27W3D8200dOhQmx3SwJyjM43O8flQVCpVykTviYSF+COmgBxxTy8MuDG0RdJDTw1wUZ+YpJxMkPW8Uof4ZD1xTLZHXQc6Xl3GuXLlSnsMl8S4OpFSMhA8Y7q9CXLiyGH5bdlyOf7D17J/8zcSbU4MuHFhgwYNst1NwMWJQXbAwvpFixbJ0qVLLck5eb41Jk2aZLvLgImu7vjx4232SFeZMQQ3oErjAjoatHPnzjJs2DC7Hak10KVLTQNT330zAVtgyPgfxyWLbNq0qQXo4cOH7T6p68YeOI4bs1CpVCkTCQoQXLVqlU1sgJMb56frSszyniQDQFKHsT+gSRmJDskQXWQSEGIaKAJDYtJBDnMs9gNc6d2xfDHG8cPfGDFKMBCMJRuMM93i2BiJwbw3jrUwOWMvonXr1kkDm5wwWRjd2lGjRtn33DwBUEAQqpMWk+GxHV1burXTpk2zDQMwARZ1HQQZy6O7DXRpbMBJFsky3yRAjLvBfDAbNmywWR9d6ffff18mTpxoG5CskA+CmyMOhLxyXgpBlerCRawRTyQgxBZQw6ynOwwLXA+QcqC5Zs0aG9PUA4ouQ4QJLllyAGRbyqjHTRS2u1hjg8lCkEdhEuJj5XRCrHnPcoKc4nlBkyGe8UCQLIvGYKCUu77ubizd5blz51r6k5EBNsYLubHB+AFQ45XlBg0a2BsmNBgXz02TESNG2O4zKTTd4LZt20qVKlWkVKlSti53iWksGh4wNm7cWJ577jm7LedBOXeq2T9g5BvKQZDzY6wB6KpUqgsTsU4WRwJE74yMEEjRtXXJDnHGUBm9NnqJgIyxeMbvGboiQQkHQbYjsSFeKWcflLNflw1GUr4QtDpL5UTbxcT3BoCcCBDkZgWvnCDAo9sKEPkGAIJ0i+k+00B8Q3CzhC4ucCJjxNwoocvLhdKoXDTpb4UKFSz4aAjWk7nR4HS5vd1hgEbjckzGG2lA1idewhl7bMYYaVTOm3UAkC45ryqV6sIEBAEeMbd48WLbk3NdYsrI9khQiEUHOuBH4kMZmSLrQiFIfAI64tJBj/UwhG3pOsMCx6VIKHkIhpE7OCfLSXFTA6BNmDDBAo1G4CT5ZqCby6AmF4G5cLqrrCO7wwCKMTy6zwyWsl9gR0PSFa5Xr5690cKYIQ2+YMECCy+yS/dNxDaYgVXA6brWNBhdZrJLYMq5ubru7hbbq1SqCxN3dF0mR/wCQMBFtkfPDJPM0CskoWE95e75QBIi6hDHlNHtpT7QA36so5fm4hUzxkgXmoTHgTASShMEOVlABZgYfxszZozNyljPIylkhVwMAGQb1pMJ0k2le+wMPFnHxSEahsyNsUCyTMb0GEecN2+efdyFGx48bkPmCUTd+dCAlSpVst1f9/whphvOIzacC/XcNahUqtSJbA64MRTGeJ97EgRwkYC4hAOREQI/EhISGeIQeJIUkSnCBbYhMaEO25LguO2dWCZxInMk7tlvJJQmCNIAAIsToo8PqcmuXGYHvLgwBx7qAUdMfWfgxjZsj4Ah3zR0eQEoYKWceoAPu/dkiO6cOBYZKWk66zHnR8NyTLJTdy5YpVKlTi423Xgdr0CJGAaOZIAOYtQDjsQj23ETkxgnHqkPBCkjuwN+9OhcnHrFOgwP2B/7jYQuGILh5KCCOUlODrtGcHKNxqt3GxqP9aH1L0TeY3vFendcjpOWY6hUqtTLxSJxyKvXxCXlrp7zpVBEIOjkPflwF8Gyu1ivHbx4n1p59+eV279zWo6hUqlSr9BY9Mak8+VQRCGYWl3uRlCpVMGVQlClUgVaVwQEVSqV6nJJIahSqQIthaBKpQq0FIIqlSrQUgiqVKpASyGoUqkCrVRB0PtIi1qtVqcH+ynVEOTP0NRqtTq92E8KQbVaHQj7SbvDarU6EPaT3hhRqVSBlkJQpVIFWgpBlUoVaCkEVSpVoKUQVKlUgZZCUKVSBVoKQZVKFWgpBFUqVaDlC0H7bGGS/3rgMOHsq1euLHR9qLz1/Oytp1Kprkx5YzY5O3mXveXe9eF0vvJIKFkInklwNvBjWjymxjQr4lnpESfpps1LTpR7p9hzM025de5ivWXuVaVSXTnyxqiLUxfHLpZd3Lpy7JZD64aT286vPFJKBoLmBIzjEsyJJsRJtDnZuFhzIXEJEnfGnLirc/bi3YTprPPaK+YbZWJ0JmZmxnomUWbCdGaVZzJld8G8MjM9k7u7uYJD9+s14pV9HT9+/G/mWOwndDtn9s/fFsbExCT9naH3uCqVKlHEA/FOrBEfzqxj4nTizcWOi5/o6Gg7ybo3Bt1E60zG7uph7zHYlzuOtzzS8oegyf7iDexio4/Lyf2/y95vvpJTsdHm5BIk+iwEmSke8M2aNUu6d+8uH3/8scydO1fmzJkj69atsxfhFfAbM2aMrFmzRtavXy8zZ86UnTt3ysiRI219IOQadO3atdK1a1fZvn27rFy5Uho3bix16tSRWrVqSdWqVe1r7dq17cz1iEbt0KGDNGjQQJo1a5ZktmvSpIls3brVNiLgnTRpkjRq1MiWdevWTYYPHy6tWrWy+8cfffSRDB06VH7//Xd7PiqVKlHEAzH06aef2lfib8uWLbJp0yYbp8Qxy99++61NbEgoACDrHByJ819++cVy4JtvvrH1iHkXa8Qp8UzMfvfddzYZouzSQtAcCwjGxcXIIXMiRxYvkR/at5a9X2+UuOOnzPpYe0K7d++Wnj17WogBwmnTpsn8+fNl8ODB0qdPH9m7d6+t57x69Wpb9/vvv5dRo0bJvHnzLCgXL15sl8kmuVgaC8CyL2C0Y8cO2bVrl2044Fm9enW7DwBJYyG+MQAgUN6/f7810KUeMN24caM9B76V2G7ixIkWgNu2bbPZ6U8//WQbHfAB53HjxtlvKu8HczE/CJUqPQhYATbiBBASp/TkYAGxCdQoI/aAF++B48KFC2XDhg02lonzzZs3W4D+/PPPdht6fqGxBhypR3xyTFceaflC0IIo5oT8sXKxbK9aXn5+6SnZPmKgnN63V6JNRkhXmSyODKp9+/YyYMCAJLdo0ULatWtnG4b9YIDYt29fC8tVq1bJoEGDLOVpVFLizp07W/jw3m3jUmZeaSReAWHdunUtPNkWIyBIFkc2OHDgwCQDOrLGL774IqlxaXzOA8i6byoy2AULFthl4AwkXWaKpk+fbgHOh6pSBVUu5ohPhpkAHVkfScYnn3win332mc36gB3xQzyzTLJB7JBorFixwiYrxCSm1wfsgB4iTjHHYT9ff/21zTovKQTN8SUmPlbiTp2Uk/u2y4+Vqssf7TrI7ukz5EjscYmNOZ0EQSADNEiHMRczefJk6dWrl71wLozGYl3ZsmWlX79+tusMhFx/nwYlY2vZsqVNkYERcG3YsKHN2sjeevToYaEJBOvVq2chyLaYBmMffBg0KCk55puJ1y+//DIpq6Nh2Q8ZLN9O7J9lush8gHxws2fPtufLPtk34kNmX3yoKlVQRYZHBkivjlj44YcfLNCIDXp0ZH2ADRaQIZK8UA7MqEsckoQcOHDAgo1MklcSEdercyJW4cKSJUtsT5DliyFfCCaYLu/x+Gg5Gn1Ejm7/Xk7+8Zuc2vWbxJEFmmwJOADBpk2b2kyLV+dq1arZ8TjG/+jmkvmRRbEOAAKYjh072jE9sjegRhnw4duCBiGLpHtLwwEjsk0AS/r83//+12abZI80It1w9uHG9DDjk2SMmDL2RRedDwZov/7667asU6dOMmPGDNuFX7p0qf3w+vfvL8OGDbPn4b59OAcvFFWqIMpldyQYwIv39PLoshKzxBcGdCQqDEsBTLJBEgnil0SFZIfu8b59+2zyQjISCjlim/in3o8//vi3ewyRkm93OIG7wrEm8KNjJM5ceHxMtJxKiJYYsx4DB7Ky3r17W3BAeGe+DQBMmzZt7MXSUMDNOw5IowExAEbD0H3m2wTQ0BgYMDoIUu4gyI0LxhE4Plki3yo0PKn2e++9Z8ccMB+O13wgfCNxo4QbI8uWLbMZIOdE9xywYjLSypUry9ixY5M+GG/WqVIFVS4OABMQpDe3aNEiCzg4wCuZH+UAk54gkHPZIvFMHAM96hPP1KXXSKwRX5hjUIdMkPj+6quvLDMuRgyGh6ARx7HPB1onXri1KYgzJ0sXkru0JUuWlEqVKtlsENesWdOCqHTp0jazI8UFYoAPqNDV5WJJbwEPXVUaskuXLva99yIBEo3AOJ0XgvXr17ddbNdgmGPQ0ByXrM5rjss3CeI8SK/J9BibmDJlioUn58SxeWVfwBmzDvEh8A1Geq9SBV1eCBJPwI8YAWzEIcvEErFLHZIS4gyQMezkhq1IZEIhSMwBPuKd7JJ9EPfuTrKLyUjJF4LJiRMlAyPro8vIOAHpL1kWUKlQoYJ9/IQLd5kd8KF7DARZx/gBd2C5SIDG2CIN5xoBN2/e3NbnmwQghkKQ/bqG45VskAamcWlkzAdExklXF7FfAA4EOQfOiZs5NWrUsHedyTLdTRVuhrgGp8tMJktGqVIFXSQsxDyxT4+Knh7LmGEyYAi86H0R1yQc1AN4dKXpHrMP6lLuIEi8wQqASuICQNkPyRQ3SMgOWUc94j4SShMEOVnIzIkBDKDFDRG6mGRgLn3F9O8BDl1PLpxuNHeT2AdgYawQyCHqA0q61OXLl5fly5fbfTPgCsAY76Nx2SeNw/m4BuGVRuP8aCwgyxgfje/KeRyGsUBAzdgkHwjnQbedbzc+2PHjx9tMlnNBfECck1tWqYIsQEZckuhwgxGgATPijCTEQZB4IgaBHFAjbskUiTnqAE1impikPjFIxkfWSKLjlRuLhDfu2cFIKNUQJOsig+ImBJkZXU66rgBuwoQJFoZ8O3CiGGABFjJFADlixAjbJWb8kCyQu7Wkxoj6XCSP1NBQdJvp5pKpcTxuajCmh2n8UAgCPxqZR2DI3rgpQsbqymlEzmH06NH2nFjmA+D4ZIdkiWSPNLhraHcd7jgqVZBF3MEAkhBimJhjDJDeoRv3I6ZIHkhIqAsIgSBZHjEH7KhPTw9AAj3WkfHBCxd7TizTTQai9AjZfySUaghywlwId3e4eE6Qi+WbYMiQIfaOEMvUpSFoJIDGBdMgQIl1XDCN6Pr+4cS3BcB0Nzy85puGYzg48coHA5DpwtKdpptOFufKOS6N6TJJzp9jA3D3Fy98kNQL/SBUKpXY2CauiRuARAxhIAfsyNooJ96IPXqMxDwxRyy7G5VAkO2JY/ZF8sO+kxNxGcnYTDUEOQFvF9GtY9nZrXf1MO/dcuh66oYT+wlntuGV7dy2vLI/GtR7LOq5cret99jeV+97t51KpfpLxIUzseLs4seVuXhjHTHpYss53D5YTk6uvov5tCpVELzSRGO4BnHvvQ6n85WrVKqUKaWx5K0X6tDySymFoE+5SqVKmVIaS956oQ4tv5TKEBBUqVSq1EohqFKpAi2FoEqlCrQUgiqVKtBSCKpUqkBLIahSqQKtVEHQeytbrVar04P9lGoIuie91Wq1Oj3YT6mGIH8Co1ar1enFflIIqtXqQNhPemNEpVIFWgpBlUoVaCkEVSpVoKUQVKlUgZZCUKVSBVoKQZVKFWgpBFUqVaClEFSpVIGWLwTtn9oZ88pb/ujkDP/ZFWdXqlQqVTpXWAha6DnWGceb/8WbFQnGvE+IB4aJdVUqlSo9K3kImv/h+IQEiY2Pk/g4psQz7wGioaD7IQVeQ+233uuU1EmL7bX4rFepVBeucPEUCYfqfOWRlC8EOa49AQO9+OgYORlzXE7GR5ssMF5izHogeOTIETtjPBMmAzTmAmUy819++cVOXu7mIGU9r26CZsyky1988YWdQN27PnRe0rVr19qJ0r3Lf/75Z9IM9ByXieA5F8pZx2TtTO78+++/W/Oebdg/dVQqVepEvDHxOfHr4s3FLpOpM7k661wcUx8+7Nu372/riE0mZGfZK7jDBOxusvbLAkHEgQFdgrm4k78aoCxfJSfjTthskEyQi/nxxx+ldevWMnfuXJk3b5589tln9n27du2kadOmMmXKFPn222/txf/0008ybtw46du3rwwYMEB69eolNWrUkJYtW9rlgQMHyqBBg2T79u0Wert377YN1aFDB7uOhuWYnTp1ku+++0569uxp982677//3m5L/ePHj0ubNm2kf//+MnjwYOs+ffpIt27dLAipn3R9pvEvdgOrVBlJxAxJx8aNG22MAj7iEK9Zs8auJz63bdtmAQYcSUK++uorC0+WeSWJ2bRpk61LvBOHLhZ5BYLUIZkipr3lkZZvJgjo4mKi5cBn6+XQ8LGyu35j+WPREok9cFRiY+Ll6NGj8sknn0iXLl1kzpw50r17d5k1a5YsWrTIgqpRo0bSr18/mTZtmr3odevWyZAhQ2TixIkyYcIEGTNmjNSsWVOaN28uI0eOtIBctmyZpf9vv/0mI0aMsI3cuHFjCzn37cJ+AeqKFStkxowZFmp8KwHS6dOn24ywatWqttHZjkZeuXKlPQ7fPO5bB2Dy4XBuKpUqZSLeABSxBPiIty1btligLV++3CZCxB4xSowRz/TeVq1aZYFGL5GyzZs3y65duyws6U0C09AEBcZwDOpxzEsMQQPABNOFjYmVP7/+UvY0riO73ykpB+ZNl5NHD8opA6MdO3ZYAAIeINO1a1dZvXq1hVezZs2kVq1aFjxkbHRPP/30UwtA6ixevFhmz54tDRs2tMAElGR8gJKLhfxkip9//rnUr19f1q9fb0FLvTJlysiwYcNk7NixNvujPo1HY3JsgMix+QDctwcw7dixo/3g3DrgyDF4ValUKRPJCBkegCKDI4lgSGvnzp0WdgARaBHzZH2HDh2yw17EGZkdcQowv/76aws4AMh7envs0ysX12SXHCu02xwp+UMwPs5AMEGO/7ZLfmnfUv43ZojsX7DQQOe0HD1yQmZMnyEffPCBhRHdzd69e9tGIMsDbtWrV7fd0vHjx1sgAUFABzgBI5kj2wMs1pUrV852rfmWAGxkenyz1K5d2zYi7xcuXChvvPGGPR7vWUdD0zhkiUDOZYI0HvDDGzZssN1uymlYIMg3FOuBpkqlSpmAGpkesQ4MgRdQA1RkgSQsDnKMAx4+fNjGGXFIXeKN2CQrBIrAjZ4fJu69IqapBwuALAC+GPKFoL0jHHdGTh87KUd+3iGn9v8uJ/f+LtHxMXLk8BGZPWu29OjRQyZNmmTH/hiDo1sL7AAcQKN7y0Vw8owXMO63YMECWwcDSbrMXCTd3tGjR9uGA2w0HmN4AJVvDBqPb5xSpUrZbUifqeOgRoORnfIhtWjRwu6bccm2bdvaLnTnzp2TBmGpz3bcxOFVpVKlTMQMMQYEiUlikGwOMAI/XunqEouMHZIRMmxGr46eHvcRKHdZIPG+detWC0RiGLneGsehPvXIJDmWK4ukfG+M2Jsi9gaIybK4Q2xgkcBjMmcSsy7ITPd2+PDhdjyPsUAyPEDHDY9KlSrZ7iZjAUAQ0FF//vz5to7LBBkXpEsM7AAjWSP1MZneu+++axuJY5IRAtePP/7Yps72nAzUMB8I3XAajgala0y3efLkyfbV3Z1yjcg2LotUqVQpk4sfsjuyOLI3EhwyPbI5EhV6c2SCxBbdZdYTwwCSMUHiHCgSz3SdWU926BIS9k/8A0BM7479UZf1lEdSvhDkOO6CQw0gycTIALnZwXgbMCQr5C4xWRdAossK9flGAH50lRnbYxyRbwJACDhpDKC1dOlSe8GuPt3e9957z97gAGB0uYFtq1at7DeDaxBe+WZq3769/VD4cLgbzDcPmSfnyfYOmmzDBzV06FDbyCqV6sLkIEhmuGTJErvsusWuS0y8EXeu2/zll1/aniGvxDR1ABvbOAhavpgY5aal61KzD4ayWCbZcTGMIyFfCPrJHRwIkmUBGDKtOnXq2Mxt1KhRFoBka4wHctOExgJ81CVN5hWgVaxY0Y4JMl7HTQ7ARKMytsDdY7496tWrZ4HHdnSZ+SYBmowvkg3SIEAQAAJCIEjjNmnSxHanATHHI0Pk/Pbs2WPPn8bnbjbfXCqV6sIE9IhJ4ofkhRgloQByJD5kd8Ql8CLr44ao6w6TCfKeOKZHSbwS+y5RAXTsgx4d8exinH1zHKDqgBkJpQqCnBR9fSBIF5cxOoAGyLg7xBgAzwtyMZwwMKIuUOSVMTuyRm6ITJ061d4pZuyOV+oCTbalAYAZDcIYH1kd+6PLzLYcm8bhWwQIA0W+cRgDpJG5y8w2ZKBAj/N0EKQrTH1eVSrVhYmEwyU4JBfEF91eusXAymWCdIeJZYAJwIAigGSZzI7khPjFQBCuAFiW2ZZ9uMyPuIcFjBHSY2R9JJTqTJA0FbjQ7eSmCBdEtkeGxg0JDLjIDB0U+cZgjBBA8bgL44FAiobgm4A7zXSTgR/HAHBkldww4Rg0EA3FemAGIMkMyeh47IZ1DRo0sDdkaDCySj6oKlWq2Lpkn6xz1+AaV6VSXZjozgI34oksjyEs3gNB4hvgEV9AjHgGkMQ4PUi6v/TyYAYxTfeYDJEEh1cSGeLXxac3Xklc2M6ND0ZCFwxBxAlxkpwIKSsXxoW6rA8YkSYDKPr2QI47O1wAjUU9yrgY6nMxZGTQHfo7wtOANCb7o567kQEIeU+DU599k/XxIXA+nBvbUo9jcS7U5e4w65G3cVUq1YWJ+MPEE/FPDLt4I1YdxDB1iHvin3gleyTWqct6lnllH5TDErYJjU23L+oQ644TaVWqIYjdRbrlUJ+vLLlyd5zz1Qt1SuqqVKq0KVxcRcJAzhvDXnnrhStPrVIFQZVKpYq0gJoD4KWUQlClUl0RinSGl1IpBFUqVaClEFSpVIGWQlClUgVaCkGVShVoKQRVKlWgpRBUqVSBVqog6L2VrVar1enBfko1BHmyW61Wq9OL/ZQqCPJUN3/fp1ar1enFfkp1JggIncNRV61Wq68k+ykiEFSr1eor3X5KFQRVKpUqo0ghqFKpAi2FoEqlCrQUgiqVKtBSCKpUqkBLIahSqQIthaBKpQq0FIIqlSrQSjEEvX+E7N5fiP22C13vVeh67/L51idnlUqVOoWLpwtxcvtwSq7sYihFEAw9GV7DPZHttZsknT9XcdsxTynzhVLGem99bz0nb3movfXdvs53Xq6eSqVKnUJjypnYcvHuXU9MujKWkVsHB7Cr5+Ti2HHCW3Yx5AtBDpxoczEA7RSTKZsTSkg8QYDGpOq///67nRydydR/+OEH2bRpk6xZs0YWL14sGzZssBMsu4ukzubNm+12TITu6mJmp2dSZa+2bdtmy1auXGm9atUq6xUrVtgZ7V2j7tu3T7Zs2WInc//mm2/sBOzMcs/M+M6ff/65nTGfRkV/Xd/FbWCVKiOJmGNideLPTZZOXOGdO3fK3r177fvDhw9bRlCfidV3795toUa8sY6J2OEB9annjUVe+cED4hpOOBC68kgrPATNwRLiz0isOXj08SNy6tcdsmfpHIk5fNCccKzExcaYizgiX375pcyYMcN6woQJ0qdPH+ndu7dMmTLFev369RaCXAQGaJMnT7YN8tVXX8nAgQNlxIgRdpuJEyfKH3/8cfYEEjVmzBjp16+f3dfMmTOtZ82aJW3btrUgpFHR999/LyNHjpSmTZvK1KlTkyDMObEtx2jXrp39kLwQ5L0DqUqlOr+IGyBIwrF9+3ab0OzYscMmHp999pmNa+BGjB8/ftyaBOfTTz+18X3kyBELQNaRuGzdutUmUqGZImAkXikHqJRdeggawJw2J/KnAdkf/bvLT9XLyf65C+T0gSMSayh9/PgxeyHr1q2zWRaZmoPan3/+aRvKpbpcxBdffCHdu3eX5s2bW1ABTiBHZjhv3jwZN26czSiduOD+/fvL+PHjbWP9+OOPSe7atassXLjQNhz1+LZYtGiR1KtXz54T31K8cgzK+MCaNWtmz8tBkG8r9surSqVKmYg3TNyQfJDkfPvttzbGli9fLmvXrrXLgJEskZiDD3ACaGJ6a/QSqfPdd9/ZXhsxG/pzVzCEcgDLMNolhSAHi0mIkViT9e1f/5lsr1pedpUrLTvHjpPTh45aSkN4gMSFL1u2TGbPni2dO3eWjh072mXMhR44cMA2GN8EgKhatWoyevRomTZtmkyaNMl+awBQMkEHQY4PPIHYsGHDbF0yQOdu3brZxnbfHrySJY4dO9Y2HOk3WWivXr3sudKtrl+/vm1IB0HWDR8+3H4oKpUqZQJsZHR0VcnoiG2gRgZIzJMNktiQhABIMkV6jAyVEesAjfrEH++JP0AHEGGKV8Qq9UigSGZcphhphYeg+S8mIXHg8vihfbJr1Ag5MH2S7DMnExMTLafiouWYOWHoD/wAExlb69atpUWLFkndVsbiaCwIzzdC3759pVKlSrJgwQLbYECQlJdxPi8EaWS+HdgPEBw6dGjSKx4yZIjMnz/fgpAPArjVqFHDdpPpFnNebMs+ASIfSuPGje15OAgCZyBN46pUqpSJ7izgIskg9hjTA2YObmSHAI24JsaAIBCjHBDCA6BHtggo9+/fL7t27bLdZ5cJumyTBIZt4AgApdyVRVI+EGQANHHMLCb6tJzYs1diDx2QU3/8T+Jj4wwgYyXGZF+QngsFJFw40CEbY5n1dIMBFJkaIGrZsqXtsrpuM+ODNEAoBNkXXWTKGecDfIzt0Y0mK3RjjixzLBr55ZdflgEDBkiHDh3strxv06aNhSLd58qVK9v1nAtyGaSDokqlOr8AE3EPBAEcUCRhIRN0Zhl4kYAQn/QCiVG6xICPOkCQ4SggCjwBq8v0HOhInIAqpj5Moc4lgSByJ5JkDn72BAAbWRTjeGSAvAKqJk2aSMOGDS0I3XoyPqBGZtiqVSsZNWqULFmyxJYBMcYCvBBk/zQscKRxPvroIwtD6nDDw5mGpOFoaPZdu3ZtmxlyXMYLaXQyTgz86IKTqfIhIq6BDyh0HEKlUp1fPNnhkhxiHEiR4XEjgzLik54k8UkWR++M9WSEjBHynhglYwSadHsd4HglLhluYz08YP9s67LBSMoXgl5ZCJ41AiScIDBbunSptRsTbN++fdI6zAUCM8b9AB8ZHIADTMAL2jsIki3SYIw70BDcNerRo4fNGimn+4y5Y8yNEBqETI5UmvE/xiM4BvudO3eufaVbTF0anDvEDoJ8U7EfvmVUKtWFCYgxHgjkiHMARVwTv4CQuCc2GaOnCwwDyAQpY4wQKJJIhUIQ00NjPeAjUQGmdJvJHBkqi3TvLUUQDBUwBCZAyJmTAzhAjmVvOWkzsPvkk0+SusDAioyNRnIQBKqYtBe5my80Bo3HK6Y77Y7jGg4I0lXmMR2AzL4ZN8TcvKHhuWnjHqshDecxGu8daZVKlTI5kJGAkGQAMrI/4EhXmWVgBryIWepjN55IPZZ//fVX+x4IAjfik+SHhIheIhxhPftyGWWkH5lJNQQdfAARA6R0eXkub/r06fakvXWc6cYCQb4RABmv1GXMgDE8HonhjrCDoNuOOsCSi6eMR20YLKVhXDnrgFyjRo0s9PgGwQCXBibzBJDURbySyjsoqlSqlIuhJ3djkUwQYAEvoEgvC7C57jAgBH4kNCRLbEcPDNCRTbKesUJYwvbA1PUI4Ygz+6LLTUZIUuViOa1KFQSdABAXQfbWs2dP+9AzF8jFuxP3im8HxujIwHil0RANyFged49pPODkFRcLZBlPBJR0kdmW9ZwDx+ODAKbAEfABSODs9gt0XYquUqnSJjI4Yh9wkczwSswRl0CM7jGxCQPcesAGNIEf0AN+wAyoOegBQXjghsS8InZdwkUXO1IJTJogyAU6etPnJ+OiCxsKPycGOPlW4NuAjI7GQa6RGAeA9qEXz/64eL49OA4N5gUtZt80HAAlhWYfvNLYbEPDuW8WlUqVNhGzxBhmuMu9p8dGbHuzONYTl5QRk/TouMMMK1jP9pQBOQdTt61X3n1h3kdCaYKgSqVSXWo5QIZCMrVSCKpUqnQlhaBKpVJFUApBlUoVaCkEVSpVoKUQVKlUgZZCUKVSBVoKQZVKFWhFBILeW9bp0SqVKrhSCBqrVKrgKlUQDIWI+5OZ9OrQ61GrM7KTU7j6l9KXQ6mCIODgbwAzgvlbRbVanTKHiyGvw23jtfu7Xz+H2yZS9lNEMsH0bpUqvSjcv191yuyniIwJqlQqVXqVQlClCpDCZUjOkVakjxHJfXmlEFSp0oG8wR96Yy8S9u4/LQ7dn1t2P4DsrRvOrr6fvfXc+7RKIahSpQN5AREbF5eso2NifR0TYn7AFEfHxMjp6Gg5dfq0/UHU1PrEiZP2B1KT1nludnDjw1s3NbY3T8y58qPKDoRplUJQpUoHchAEWKejI+e4WCYxipNjJ0/J4eMn5Ojxk3LM+PiJUxFzDHOVm+OEK0uNOb9Tp5mAKTLZoEJQpUoHuugQNBncoePHDQRPXPEQPHos8Rw570hkgxGBoKNx6Ml414eWhy575a0frl64cq9Vqowm/l0T8DEXCYLHyQRPkAleDAiaY8QlhC3zmuOGOlw9IIivOAi6gU+v3Afn7E6W99T3O3m3nXcw1Su3Pzcu4OqGOweVKiPIxQQPJIeDWWod6zJBA8FDBoJHrgAIOsj5nYerd1khyEG9JkVn+j2mzwtXxuxSzBbnTpjZpZhdjkHO0PqIesxG5a3jFcdiPTPIMTsd+2O2OSZSD52FzmuVKr2Kf7/ERXR0hCEYF2+7q5cTgg5qeM/effLbnt/l8JFjFoTh6jtfdghypwboMEco01rOmjVLRo4caZcx02pSBwB+8skndkJ0IMkyEzczHzCzyQMwpt5z8EJcGJMsT5w40e4n9CKZ55i5hZs2bWpnsf/888/liy++sHMLM68px/Bmic4qVXrVRYegidXLDUGgN3vOPJkxc7YcOnz0vOdxWSHIgZl8Geh07NhRevXqJY0aNZLq1avbSdg7deok48aNS5oEHUjOnj1b5s2bZyddHzZsmLRo0UIGDRpk4cnkzYDLC0EmcB49evQ5EOQVr1mzRqZOnSoVKlSQIUOG2PmIJ0+eLO3atbNw5T2ZISDk1c1TrFKlV/Hv3kGQO6NekLF8IfZue7Eg6MDG++Qg6Oo5T58xS6ZMnZ4EwVB7t73smSBjE9u3b5c5c+ZYyCxatEjGjBljZ5cHeEykzrNBZH9kddRlVnrKu3XrJgMGDLAZ3IYNG+yk7XRr3cXwumLFCgvXvXv3Jq3ngjGArVmzpjz33HPSunVre+yWLVvKjBkzZNSoURauZJccn4nXWeZ8Var0KmIgHARDAZecT57iOcArE4LuPRCcPGWahaAbF/Tauy3PRF42CHJgxvgAzIgRI2TZsmUWfGRlM2fOlN69e9tMkSxs48aN0rZtW5kyZYrdhpsXEyZMsMAEjj/++GNSFuhMHUBXp04dm0Wy7P4RkFkCyOnTp0u1atUs9ABrxYoVbbeb81i5cqXN/KgLhLds2WLfp7WxVKrLJffvPxwET5w8bYFx5Ohx++q1dx3giBQEw0HJa2+5HwQ5p31//Cnbd/wiO37eaV9HjBwtQ4eNkB9/2m6X8e7f9srBQ0f+djy4EAmlCoJkVVu3brWZFzDr0aOHNG7c2HaH27dvbzO4+fPn2wyPukBy7ty5FnYsAy4yOLrFAJJxPfchY26I9OvXz3a32Q8wZT0XzTgj3WS60N27d7fnQfd47Nix9jw4NhkndR0IyQh5rxBUpVclB0FA524oeO3WAZG9v/9hsyuywbRAkLIDBw/Lrl9/SwJrOKcEgoBt46bNMn7CpCQ3bdZCGjVuKmPHTbDL48ZPlOUrVtrruKIgCFC4KbJp0yabdfXp00fq168vNWrUsF3PTz/91GaJ+/fvtx8ey4wFclf3wIEDMmnSJFm1apX98xqAxk0N9yGzji42gP3hhx/svrmBwt1gB7XFixfbMcj+/ftbUAJE9stYJOvZBw1EXc6B8wS+CkFVelVyECQT5G4qkAMsvIaaciCSWgg6qP35v4OyaPFSmTBxsoVvaD1nV5/3fhBkewC95etvz/obGThoiPTrP1A2fbVFNm/5xvqnbTtk/58H/gbdywpBPgwyMsbryPK4i0um17dvX3vzg8yMGxpAi7os07399ttvLRCnTZtmu8GAjRsZZILUY5lxQsBGNxhw0cUlc2Tc0WV0ALZu3br2LjGZJJCkqw2AuWMMBKnH9hyT8Ue2VQiq0quSg6Ab63Ovfk7LmCDr/nfgkCxYuEiqfviRNG/RKmw955RA0NVx9Xj13hhx3XhnV8/5skIQuNAN5c4uGRuAYpyODI/3jAu6GyZ8cGSLXbp0sV1WQAW89u3bZ7utAI5MjUdlPvvsMxk6dKgdR+RGCSADaBwDWHLHmPXUp/tNJti8eXN704XHbrgzzTqyTJ4zJBOkPseKVIOpVJdDfhB09sLOz6Hb4AuB4K+790ifvv2lR8/e0qp127D1nClz5cndGPGa+kBw6rQZFoLJ7R9fVggCJqBDFkgGxp1YurTcpQVcdEGBIrDigyMbW7p0qc3qyBSBH5kgoOQGB3eSGT8EotzEcN1ZtsUsc8ODmyvc6GA/jEXSLSarJLsEpmSE3JChi824otveWaVKr7oSIEhXm27pvPkLpWWrNslCijJXfiEQnDtvgX1W0HXfw9VzvuzdYTdGh8i4yLZ4LpAyTo5sESNeqU8XmXq8J0sEnDxYTVeVMT1M3dBua+KHH233T2ZHd5jxRY5LfW64AFbqcU4AkMxSpcooIiaIq8SfuwoPtNQ4CYIp/IsRB6qLBUHGBhkHZLzQb/9u33Hm3GmXUF5cqFIFQfethEOXQ9+HlnszPD+77Zzc9t5tee+Wve+9VqkyiogB/o2TQFxOCDI2dzEhmNwYYGg9Eh7aJZQXF6pUQVClUl1a/QXByGaCF/orMsCH7nDbdh2SrUeZKweywDa0TqjdNsntFztI8rC0QlClCogIdHo3DP8kN8Z3oU4NBL/+Zqt9TIb34eo4kLny6JiU/Z6g2y6542P2S53L2h1WqVSXVi7YAda5EOQ11H+HnZ/PgaAB4F8QDG/KuHN74OAhe/PCrw6gcuN69mf9OUaYuiky5+Ns1yX+5UukhrwUgipVOpCDIIEPtJyBCz+0+pcTu54pNT9RT0YFPE/arnai6XaHsy0/dVpOGmji8HVMOXWMWbbnarquofVS5Ohzl+25mXUuC4yEFIIqVTqSA6HX7saguznogJkSJ7evSDit+w3dlpshmPWcfySkEFSp0pFCIRZ0R0KpgmC4k1Gr1eor2X5KNQR5UFmtVqvTi/2Uagh6++lqtVp9qezGBcOBLjn7SbvDarU6XdrddEmp/aQ3RlQqVaClEFSpVIGWQlClUgVaCkGVShVoKQRVKlWgpRBUqVSBlkJQpVIFWgpBlUoVaPlD8AwPRSc6wb6eMa9/OfTBRbuJz3oUbn3osp9SWs+r0G1Cl0PlLQ+1SqVKlDcmQmPDlaVkvXedd73T+cojqbAQ5JAc94yhX0I8fyJ3RuJiz8gpfnvMvI9h+eyfrfBLt7y325mNvH/Owp+4uPU8se3+3MU9ve3qJvc0N3LbXkhjUNfNU4zYh/dcQ8W5ci6Ue/9E53znplIFScSDiwsXj7w6sz40ZkLXe5e965285W6/F1PhIWiOaTM+cxLxBgpxcbFy0jjudIJExybIaQND5vVlKk1mfgMe7sSZbpPJ1JkLGKC4i2G9my3OXRwzxjFtJ3XdunBmWk+m4+SYiecXvp7XTEizfv162bNnj10GgN99952dk9jVcfvi2JwDE79T78iRI7JhwwY7LSgfuKvv3U6lCqKIFabA/d///mffu7gl1ok1Zn70QhIT80yF62KJMqbphQdualxX15UTv8xMSSx6yy+G/CEYlyCxCXFy4vRRObb7F9m9cJ4ciT1mIJE4OxUXtmbNGjvhOeBgukw3v3Dv3r1l8uTJdoJ2ptQEkkCmb9++MnXqVDsdJo126tQpO9k6k7gDOBrJmcZhknbmJp4wYYK8++679pVlpupkIvaRI0fa/dA4ZH3MYUzjsj2NyCTuPXr0sHVo0H79+lkwskydxGs9Y8+d+Ysx58qHzETxnCv1qOPOiw9EpQqqiAFilWQCsAE+Yoq5v5l3fPny5fY9sQcQiSfqsOx6ZsQ9Cca6devsXOFMxetiklgjxmAKc5FTDghd2cWQLwRjzYnEnY6WXctXy58DhsuOmtVkz+QZEvPHYTl2/ITN4KpVqyZvvfWWDBw40DZAxYoVpVmzZvLBBx9InTp1rAcNGmSBxEXt2LHDgmzAgAHStm1bqVGjhpQuXdoCrnr16lKrVi0LMr5lgOf8+fMtmJhY/e2335YRI0ZYMAGoDz/8UDZv3pwEJjJNjkcDf//99/Z93bp1pUKFCvLxxx/bcy1ZsqRd36tXLwtZBzegCriBapMmTaRx48ZStmxZKVOmjDRq1Miumzt3btKHwfUAW5cBq1RBEbEGsOid0VsiYSCj++mnn5LgR5zv3bvXQg8AkswsWLDAlpMo/fDDD7JlyxYbT2zLfkhSvBDkPbFMffbHvlh/MeLNZ0zQpLfmJGJj4uTP7zfI7o8qy96XXpT9c2ZI9OFD9nf+D5psjgnPgR9Q4Rugf//+FkBAiwufPXu2TJw40UKDzJGGw3SDgdC8efMsQF23FfCRlVHOhdN9xWvXrrVg/eyzzywYAefMmTNtGQ1F45CV9unTx8KWBgbGgJEMFLiNHz/eHpMPiYyU/dPQfAsNHjxYunTpYj8IPiDMNxUfLMcgo+X8OBbgI3Nt06aNLVMIqoIkAEiMEdOAiVfiFhYQpyQmO3futLFHrAA6hsxYR/wRU2SAgI/hJ4bONm3aZLlBD5F4ciY+2S91//zzzyRIRlo+meDZ7p/p+p7evVM2NWkov88YI7smTZdTMdFy0sAx1pSTDg8fPtxCjMyQ7iZgAIIsAxUag3WdO3e2mRXwohHZ/8qVKy2cSHtdo9LIpMB0Y5s3b57kcuXKyaOPPmqzTTK1pk2bSosWLewHAAQBMY1Lw9Nor732mq1HNkimyfZsQ7ZZv359C0G+xcjw3nzzTXs8zpVvLM6d82C/ixcvttADluwbc11sT7fgYnwoKtWVKmKEhGfhwoUWWiQcq1evtt1j4oaY5j0Jyy+//GLr0NOCFSQX9KCIJTJFenzEPUmPg6Y3nmAE2zDEBkQpvxjZoA8EuSESKyfMSRyLPSmnTpgTPHFQoo8fkWMJMSZDjLUXR9e1fPnydvyPTOqZZ56RN954wwIH8DRs2DAJTICPrixjeu5iacgqVapYOL733nsWUjQcAMLU45uge/fudn/jxo2zjQGEGG9wjUG9qlWrWijxnm8jMkEame3JBOmG09h8aGSsQIwPhvOhe04WSaYHpKnPfjgHut5ktJw/x8P2C+KsI/2BqFRXsoAQJtGAAUCMmCSRodflXsn6iBlilV4hXWF6a2SFJE1kgA6OjO+zXWg8Eb8kUHSJeSV+L0bM+WeCBoIxsab/b2+EkAHFyKn4aIkxPhF9QlatXmUzqOeee85magCNDGvYsGEWPFwY0KJBHDCAJpkXgKEh6Sqzjm8BtqFrTH2+JbgbzLjfK6+8YkHJuB5ZHWZ8r3Xr1vYDQGwLcIEWDU8DA+NWrVrZbBDAAmsyR/bDOB8QdOk83zTc4OG8PvnkEzv2CGT51iLTJTtk37QLdv8QcKQ/EJXqSpb7dw8EgRKJg8vUABpjfGRvlBMzlNNbA2IkJ8Qq3WD4AARZZojKC0HLH/Oebegmk9zQZSZBIkYjHXNhIYg4jjsh+7wgF28yRJYZ1yMlJrPjRoO72QEw6DoOGTLE3tAYM2ZM0oAmBnhkVYwPcmFkX3xLAC4a0QGU8TigSuMCMhqPhmRcDtOIjMnRwJwPXWp3J5fjMX7APjAfBt107kK7dQDQfYvxQQE+utNsT1ec/fFBMn4ByPnAKOMaqM83GtfGflivUgVNXggyZET3l14f44J0jwEbsUG8EO8OdsQU8UucsexujHghyCvxTtZIgsQ+SIzoxbHs6uFIyBeCyYmDAxBOvn379vYCRo8ebVNeTrRBgwbW7hlCThoDRoDEuAHwI/MDMFwkjcNYIo3CMmAkDa5UqZLN3txdW8xdZV4Z0wNMtWvXtkBiG45Ppufqkjm+88479m4v2SLm3AAw582xXCbIe77NpkyZYq+F9cCV1J4yjsV18K1EN9qNR6pUQRO9LTIz4pU4IRYAFXbAIyFhPWOExDvJA5kdoMTAkHjzZoKYm6OwxY0Dso5XtiU7JIEi7i47BAEOJ9qhQwd7MbySPZHp1axZU+rVqyczZsyw/XrqYjJGuqYAE+iQGfJtAszYB1mXAwvmgnmUBhiS3TmTGZIh8g1DlxVQ0uAcg2X3YWDOiSyQYwIzZ/bDcR0Eu3XrlpRBrlixwn5wZLd0jflQ2cZBV6UKusj6ABsxww0RAEUiQ/yQ2JAoAC8yRXqOu3fvtqCjPmUkLWSDAM/1uohfMj2XMRLTyGV9LFPG0xrs04EwrTBMEwSBUceOHW13smvXrrYbDNxoEL4lgAimC8sFuMFRxtjI+qjDBdG1JEMju3LP4nGBNChApYzxPGe64MARCAImGtGbcbqGYR90e7nZwTFZdqYeAMRkptx8YbySmzMu6+S4Lqukq863FtuqVEEXMQeIiGuyOnqGMIFkAcgRuy7WqENCAvhIiuAG27vkhmXuBZDhkfhQj/0Ro8gbz8Q88CRL5HiuLC1KNQSBB1kcJ+1ue2OXXVGHbwEgxKsDG+vZDgMuLpxMi4viAh3EEEBk/269M+tpQN6fTzQU++abKFxjcU58cN4PLTmH24dKFVQR69wBdgkF8Uw254UYrzCCuIUPgBCAsg6TDRLj8IB4ZT/JxRp1ACv7pU5aYzLVEOQkOQlOmJPiAnjPOndyrg72QsRt58p475a9Fx+6zpn13nrJiTruOOHqsx93fLd/ZxS6zq1XqVSJ8eNi1JkYca/ILbs4DFff1QldF06Uu30kVy+lShUEQ+VOJDlfqeLcUtLwKpXq0sjF4aWKRYWgOTcvAK/kc1WpgqBLHYsRgaBKpVKlVykEVSpVoKUQVKlUgZZCUKVSBVoKQZVKFWgpBFUqVaCVKghe6lvYKpVKdbGUagi6B4zVarU6PdhPqYag+1MztVqtTg/2U6oh6P07QLVarb7S7Se9MaJSqQIthaBKpQq0FIIqlSrQUgiqVKpAyxeCPAH4l89IgrNZYR8PxCqVSpXOlSwEebKGeyrxPBKTkGB8RmLtM4KQkFoqlUqVvuULQQCYAPB4HMZALy7eQNA63iyf+9v+7r3Xfuud/crdeu9Djm7ZW89rr85XrlKpVF6FhSDYiDf/sxCMM9CLiZFTMafkeHy0JNhZ3RLn+PCaSVSYQYpJV0LLeEaHyVSYccpNmoSYbIUp9Jhmk3UOWMxXQj03EQuTtzDPqZvhijLMpC2hz/+wD9Yz4xUTvnB8lUql8pMvBOMAoMkALQD37Ze969bJkbjj9snr+LgEOWFAw5SZbq5RptJkys158+bZZcw0eswsxTbUZSJzprd0kyfzOnbsWDtlp4Mj65mGj/0wDzGmDhOmt2vXzk7POX78eGv2x6xWgI/t3Csz2TGxO5O/c2zWOVMn1CqVKrjygSBjgAAwTg59+bUcmTpLdrdqLQdWrpaYI8dNphYv+w2omGgdKOE+ffpI7dq1pX379nai85EjR8qkSZOSQEQGx4TNkydPtvP78gqoqlevLvXr10+a6Jw5TMkmyeT69u0rnTp1si5btqx89NFHdpJ3likjO3TzDTMRNHMZc+xBgwbJ+++/b+dE5txYN23aNJsZuoyTKfsOHz5st1epVMGVLwQT4g1cTsfJH19tkL2N68mvpd+QgzOnyKmjh+RUXGJ3lZnmAc/SpUtl1apV0qNHD5kxY4adZB2gsZ5MkCk53XyjTKzMXMIAjDpAjYyObT777DObPbq6lDFpOvBs3ry59O/fX1avXi0rVqywk6RzDmR3gI3J2IEu5zF//nwLVwBIfbJK4Ex32mWGnEPv3r3tq0qlCq6SyQRjJNZkgod3bZetzRrK7326yd5ZsyXm1CmJPh0vcSaDYhyQDIzuKnAj4yKTW79+vQwePFj27NljobNr1y6ZMmWKzczoNpOFAUZgBqi+//77pHE+JmonO6NL3KxZM+nVq5ftZletWtV2ickA+/XrZ9+7MUHcokULOzM96xh7BIqMN7K/X3/9VXr27GmB5yDIuXHuTLyuUqmCq/AQNN1Fbn7ExsXI6aNH5I8tBi6//CyHf9lpABUj0aeiZdfOXbJ8+XI7Nte5c2fTvZ0irVq1spACOK1bt7GZ4Lfffmu7oYCOLjNdaAAIiIAQGR3AIoukCw3AgCBjiMOGDbPAo6tcqVIlqVevnoUiy3SlAZzLBAEmWR/A45jsl7FGAEzXGgADQeqyDefAmKR2h1WqYCssBE0iKGcSuMlgsqy4eANDAw6TQcVxV/hMvAFItOla/ijTpk03XdApBkqDpH79BvLuu+/Jhx9Wky5dupoMb6wpn2Gyws/tHV4yMMblGA8EQMCIbjBdYjJHbpgATzJKwLR7927bRQa0uHHjxrYccJJB1qxZM+mmC1CjHJgCSIBapkwZadmypYVlt27dpFatWhaC1HV226pUquAqPASR5+7pOWa80IDj6NFjpiv5h8m0dsucOfNM5tXcwK+bdOjQ0XSFhxhI/mTLDx48ZKAXew4E6Q5jALVw4ULbhSXzowv9888/27FG3nMDhAyO1/fee8/eGOEOMeteeOEFCze247wYM1y2bJmFKNs3adLEjiey/MUXX9gxQbJRzp36O3futBAmU1SpVMGVPwSTERDhDvGRI8dMBrdahgwZZrq+y0xWN0rmzZtvurxzZOzY8bJnz+9nAZg4bgcEhw4dam+KfP755zZr45XMjxsiZIXAiWcKGc8DYkBzzpw5tisM/NgHy6VKlbLbMi7pILh161YLWzJE6rIPlhn/6969e1ImSH3gyOM3QFelUgVXqYIgYPnxx20GYgOld+8+BmA7ZNu27TJy5ChZu3ad/PHHHzJz5mwDnp6yZs1nJtM7ZbeZMGGCVK5c2d7FJQvkMRnqAsHNmzdbKNENpu62bdvs+CF1qM/jN61bt7Y3YVgGpgDQjfGR+XGTha6yuzvMnWuWZ86cacvdmCAQ5PlCYMmrSqUKrlIFQbqv3OUl4+OvPeja7tjxs72xsW7degs1sjkARHcX2Li7wWRxs2bNss/ycQMDMHHnmBsZdE950BlQcdOD91u2bJHhw4dL+fLl7aMuZHXs+9ChQ0lAcxDkpsnEiRPtzRr2DxRZ5u4yd5O9EPRapVIFV6mCICDhQWMyMbI27P2zOcoBITdEgJW7EcID0xiQcReXR2IAGg9U03VlW7YDas5sz5geN06o6yDmFfW4A0wWSZ1Qc8eZcULes71KpVI5pXpMMNSACBg6SCVnBzj33oHUrQutC0Sxt9wrlv22d/aWq1QqlVOqIKhSqVQZRQpBlUoVaCkEVSpVoKUQVKlUgZZCUKVSpSt5b3hGQgpBlUqVrgT8IvmkR6og6CXx+axSqVSRkJcrVwQEOQmeCXTPBrKsVqvVF8twxpnlKwaC/IUHDzK7B57VarX6YhjWYN5fERAEgJyMSqVSXSrBHgdEB8K0wjBVEOTg7iRUKpXqUgngOf5Eqluc6kwQGqf14CqVSpVSwRsHQfijEFSpVIGSQlClUgVaXghGcjhOIahSqdKFFIIqlSrQUgiqVKpASyGoUqkCLYWgSqUKtBSCKpUq0FIIqlSqQEshqFKpAi2FoEqlCrQUgiqVKtBSCKpUqkBLIahSqQIthaBKpQq0FIIqlSrQUgiqVKpASyGoUqkCLYWgSqUKtBSCKpUq0FIIqlSqQEshqFKpAi2FoEqlCrQUgiqVKtBSCKpUqkBLIahSqQIthaBKpQq0FIIqlSrQUgiqVKpASyGoUqkCLYWgSqUKtBSCKpUq0FIIqlSqQEshqFKpAi2FoEqlCrQUgiqVKtBSCKpUqkBLIahSqQIthaBKpQq0FIIqlSrQUgiqVKpASyGoUqkCLYWgSqUKtBSCKpUq0FIIqlSqQEshqFKpAi2FoEqlCrQUgiqVKtBSCKpUqkBLIahSqQIthaBKpQq0rigIupNQCKpUqkulKw6CMTEx9tWdWKhVKpUqEgplyxUDQU6CLjHvwzn0xNVqtTo1DmVLfHz85YcgJwYAyQZ5VavV6ktpQAiHIqFUQ9AR2e8E1Wq1OpJ2fIE9LkuMhFIFQZVKpcooUgiqVKpASyGoUqkCLYWgSqUKtBSCKpUq0FIIqlSqQEshqFKpAi1fCLrncPysUqlUGUGphqBarVanJ/spCYLu7/JS6nBPdKvVavWVaj8lQZC/A06po41PnTqlVqvV6cZ+SoLg8eMnzvGx4yeT9dGjx9VqtTrd2E9JEDxiKp3rE2q1Wp1h7KdkIHhSrVarM4z9pBBUq9WBsJ88EAxNH8PvSK1Wq9Oj/eSBYPgN1Wq1OiPYTwpBtVodCPtJIahWqwNhPykE1Wp1IOwnhaBarQ6E/aQQVKvVgbCfFIJqtToQ9pNCUK1WB8J+Ugiq1epA2E8KQbVaHQj7SSGoVqsDYT8pBNVqdSDsJ4WgWq0OhP2kEFSr1YGwnxSCarU6EPaTQlCtVgfCflIIqtXqQNhPVwYEj5xI9N9+3VqtVgfLYfgQIfvpkkDwsLm4ZO0gqFarA2PiPpQF4fgRKfvpokLQXqTxIXNxB48e9/UhW4/6arU6KD5kfNBwwjmRA4kOx5O02k8XHYJc2EEDwQMGducz9dRqdTB8wPh/STbxf8QlRBkEgo7ohw4fl20//ybrN31n/H0YfyfrvvpW1m7eolarA+R1+Ku//MOOnZYXGQqCXND/DhyVTt0Gyv35Hjd+wsdPyv35n1ar1UFyvqflgSQ/Jc1a95ADh45lTAg2adFDrr0hn3H+87iAWq0OpPNLjTptLATD8SQS9tMlhKBCTq1W+zkDQRD4eX3g4DFp2rKnvcjwF69Wq9UKQbVaHWgrBNVqdaCtEFSr1YG2QlCdrs1ne66vSYFtvax/OdyydVZzDBz22OqMYYWgOl2bz5ZHoPKefT0XZklmvSl3PreeWWd8tXmPWXettdm/QjAAVgiq07XPQjBbXrnuxvyJzp5fMpn1+LrsBRJ9tixTdgAI9PJK9pxF5ZY7H7LlV2fJbV/vuO9xs76EXJOlgKmTaIVgRrdCUJ2ubcCWLb/cX+BpKVOprpStXFfKfFBXXvxvBXnq+dJSrnIDqVitkVSq3ljeq1zPrr/zgUdNNphbHn3mTXnhtQpy813F5KosD8r9eZ+UUu/UkPyFXzIQNJkhtlmi/vvJ2FYIqtO1yfaipEDxl6R+y87SqHVnGTp2utRu0FpeeLWMVKvdTPoMGiVT5yyUqjUbyn/fqiT35HpMsuWIkmp1m0vlWk0kx73FTJaYW0qXrSF9+o6Sih/Wl6dfKiNPvPCu5Lj7XxaC14Q9tjpjWCGozgDOefej8vrbVaRuk/bSsFlnyV/oackX9bR8ULWhdO8zTCZPXyAVKteRJ58pKZlvyCPF//Wq1GvaTt4oXVlefL28PPnsm9K+Yx8ZNXKyNG/bST5u3kYGj5oijzz9duI4YZhjqjOKFYLqdO7rsheUB/I9I5VNlxfYNWvVRXLl/Ze89sYHMmL0dLvcsWt/6dFnqDRs2kFy3l5EatRuJQOGjJTW7btKq3bdpHnrLgaCfaXsu9Xlsadfk4eMJ09fKP/5b0XtEmd4KwTV6dzZchSTZ156X1qbTG7BklUybOREadSso7xbrrq0btdLXni5tHxkur0VKteWxs07yV33lJDyH9SRPgMHyajxE6VilZry/gc1TdbYWB7M87RkyprXgC+vDBwyWV4wWeJVWfMoBDO0FYLqdO7MNxWWvIVelIofNpKpMxeZrK6bDBg6Vt569wNpYd6XfreadOk+UN6rUN1kgh3l5lujJE/+x6VuwxZmub0ULPxvuT/Xv6RUGQPDKk3kwQLP2sdoBg2dcg4EFYQZ1QpBdTo3j7FcnTm/FH3kdek/aLw8+cI7Urp8TXm15HvSqk0PKVPmQ+nQqZ+UrVBDGjTrIDfdUkBeeOk9GThsrHTpMViqVm8qRUq8LPkKvSAtO/QzIGwkOe4sLgOHTpLnX68gV9tHahSCGdcKQXU6NxC86voCBoJvyAADwbvzPim33f+oPP/Ku9K+U2+pWrWu1G/QTt4p95HUrNdSbs5R0GSHNaRj176mC1xHXn79Pbkv1xOSKXM+eeKZ0lKm/MeSK+9T0n/IJHn2tYqJEAxzXHVGsUJQnc79Vyb4X+k3cIzcdHdxuTp7Qbk79yNSpXp9aduhl3xct43Ub9jWQK6kZMleQHLleUoee/J1efaFt0yGWFtK/OsNuS5LlGS7ubDcm+txyXF7EelvMsHnFIIBsEJQna7NZ5tfbrqthLxZpqaMGDNVst9VRG657zF5u8LH0rnXUHn/g7pS4qGXpUnTzvJhzRam2/uiVKjUSHr1Gy1tO/WRj+o0k8IlXpTrsuaTO+593Lx/RV4v9aEMGTVNHn+hjIGgPiKTsa0QVKdrJ/7FSK6oZ6Ve0y4GaC0k8y355N4C/5YylRraTO72+x422V9+eejRN+Sl16tIrgIvSPHH3pLnXqksJZ4oJffme0qy3lpQrs6aR/IWeUneq9JQGrTsJqUNRG974HEDQIVgxrZCUJ2u7TLBYhJV7CW564HHzHJeuSFnYbnddGszA7cb8si1WfNK1psLmXrFJcstRSTTjYXkWtNlvsrs4yrT3b3abHOVcbbbi8kDBZ+VvMX+Izff/ZBcbQCrN0QyuhWC6vTurAUkU9Yo050tKJmyRNllxvGuymbghi3kzppnAN17UwYALQTP1gWE1qZr7N4n/vRWmOOqM4gVgup07cRMMJPJ1jJlLWRc0C4zjud8lfVfwLNwy5boq5PsQAgk83isEMz4Vgiq07UTIXjO7/+ZZcbwnBNB6IXgWRCaV7q7fwHQQRDwcUcYsy/995OxrRBUp3ufBeHf3nsh6LUDoXc5sesLCBOh57X3WOqMZ4WgOoP77xAMdSIAz4Vg+H2pM6IzPASZfD3x59TVwTQ/hXVVsvZA0HaB9d9LsJwvo0Owu7nI3MZ5zlr/gQfNiX/3m/iXJeHNuJ8bA1QIBsLmM//LlwuCIv8/G60QcxJ/W+8AAAAASUVORK5CYII=;" vertex="1" parent="1">
          <mxGeometry x="150" y="10" width="162.53" height="240" as="geometry" />
        </mxCell>
        <mxCell id="VGhHLS6vnKNPSEnaTAmS-30" style="edgeStyle=orthogonalEdgeStyle;rounded=0;orthogonalLoop=1;jettySize=auto;html=1;exitX=1;exitY=0.5;exitDx=0;exitDy=0;entryX=0;entryY=0.5;entryDx=0;entryDy=0;" edge="1" parent="1" source="VGhHLS6vnKNPSEnaTAmS-29" target="VGhHLS6vnKNPSEnaTAmS-26">
          <mxGeometry relative="1" as="geometry" />
        </mxCell>
        <mxCell id="VGhHLS6vnKNPSEnaTAmS-31" value="自动填写最近一次预约信息" style="edgeLabel;html=1;align=center;verticalAlign=middle;resizable=0;points=[];" vertex="1" connectable="0" parent="VGhHLS6vnKNPSEnaTAmS-30">
          <mxGeometry x="-0.0936" y="-1" relative="1" as="geometry">
            <mxPoint as="offset" />
          </mxGeometry>
        </mxCell>
        <mxCell id="VGhHLS6vnKNPSEnaTAmS-29" value="访客预约" style="rounded=1;whiteSpace=wrap;html=1;fillColor=#dae8fc;strokeColor=#6c8ebf;fontSize=12;" vertex="1" parent="1">
          <mxGeometry x="171.26999999999998" y="300" width="120" height="60" as="geometry" />
        </mxCell>
        <mxCell id="VGhHLS6vnKNPSEnaTAmS-32" value="展示预约信息，安保人员填写陪同人" style="rounded=1;whiteSpace=wrap;html=1;fillColor=#dae8fc;strokeColor=#6c8ebf;fontSize=12;" vertex="1" parent="1">
          <mxGeometry x="840" y="300" width="120" height="60" as="geometry" />
        </mxCell>
        <mxCell id="VGhHLS6vnKNPSEnaTAmS-34" value="现场刷身份证" style="rounded=1;whiteSpace=wrap;html=1;fillColor=#dae8fc;strokeColor=#6c8ebf;fontSize=12;" vertex="1" parent="1">
          <mxGeometry x="580" y="470" width="120" height="60" as="geometry" />
        </mxCell>
        <mxCell id="VGhHLS6vnKNPSEnaTAmS-36" value="自动填写梨园信息" style="rounded=1;whiteSpace=wrap;html=1;fillColor=#dae8fc;strokeColor=#6c8ebf;fontSize=12;" vertex="1" parent="1">
          <mxGeometry x="850" y="470" width="120" height="60" as="geometry" />
        </mxCell>
        <mxCell id="YEwaghH6Wu-07DNfXlMs-1" value="" style="shape=internalStorage;whiteSpace=wrap;html=1;backgroundOutline=1;dx=60;dy=40;fillColor=#fff2cc;strokeColor=#d6b656;" vertex="1" parent="1">
          <mxGeometry x="130" y="611.76" width="1000" height="428.24" as="geometry" />
        </mxCell>
        <mxCell id="YEwaghH6Wu-07DNfXlMs-29" style="edgeStyle=orthogonalEdgeStyle;rounded=0;orthogonalLoop=1;jettySize=auto;html=1;exitX=1;exitY=0.5;exitDx=0;exitDy=0;entryX=0;entryY=0.5;entryDx=0;entryDy=0;" edge="1" parent="1" source="YEwaghH6Wu-07DNfXlMs-8" target="YEwaghH6Wu-07DNfXlMs-28">
          <mxGeometry relative="1" as="geometry" />
        </mxCell>
        <mxCell id="YEwaghH6Wu-07DNfXlMs-31" style="edgeStyle=orthogonalEdgeStyle;rounded=0;orthogonalLoop=1;jettySize=auto;html=1;exitX=1;exitY=0.5;exitDx=0;exitDy=0;" edge="1" parent="1" source="YEwaghH6Wu-07DNfXlMs-10" target="YEwaghH6Wu-07DNfXlMs-30">
          <mxGeometry relative="1" as="geometry" />
        </mxCell>
        <mxCell id="YEwaghH6Wu-07DNfXlMs-10" value="系统自动登记离园时间并完成该预约单" style="rounded=1;whiteSpace=wrap;html=1;fillColor=#d5e8d4;strokeColor=#82b366;fontSize=12;" vertex="1" parent="1">
          <mxGeometry x="705" y="886.76" width="120" height="60" as="geometry" />
        </mxCell>
        <mxCell id="YEwaghH6Wu-07DNfXlMs-11" value="离园，身份证识别" style="edgeStyle=orthogonalEdgeStyle;rounded=0;orthogonalLoop=1;jettySize=auto;html=1;exitX=1;exitY=0.3333333333333333;exitDx=0;exitDy=0;exitPerimeter=0;entryX=0;entryY=0.5;entryDx=0;entryDy=0;fontSize=12;" edge="1" parent="1" target="YEwaghH6Wu-07DNfXlMs-15">
          <mxGeometry x="-0.0643" relative="1" as="geometry">
            <mxPoint x="260" y="916.76" as="sourcePoint" />
            <Array as="points">
              <mxPoint x="350" y="916.76" />
              <mxPoint x="350" y="916.76" />
            </Array>
            <mxPoint as="offset" />
          </mxGeometry>
        </mxCell>
        <mxCell id="YEwaghH6Wu-07DNfXlMs-12" value="" style="ellipse;whiteSpace=wrap;html=1;aspect=fixed;fillColor=#f8cecc;strokeColor=#b85450;fontSize=12;" vertex="1" parent="1">
          <mxGeometry x="997.5" y="980" width="45" height="45" as="geometry" />
        </mxCell>
        <mxCell id="YEwaghH6Wu-07DNfXlMs-13" style="edgeStyle=orthogonalEdgeStyle;rounded=0;orthogonalLoop=1;jettySize=auto;html=1;exitX=1;exitY=0.5;exitDx=0;exitDy=0;entryX=0;entryY=0.5;entryDx=0;entryDy=0;fontSize=12;" edge="1" parent="1" source="YEwaghH6Wu-07DNfXlMs-15" target="YEwaghH6Wu-07DNfXlMs-10">
          <mxGeometry relative="1" as="geometry" />
        </mxCell>
        <mxCell id="YEwaghH6Wu-07DNfXlMs-14" value="设备与系统对接" style="edgeLabel;html=1;align=center;verticalAlign=middle;resizable=0;points=[];fontSize=12;fontFamily=Helvetica;fontColor=default;" vertex="1" connectable="0" parent="YEwaghH6Wu-07DNfXlMs-13">
          <mxGeometry x="0.1354" relative="1" as="geometry">
            <mxPoint x="9" as="offset" />
          </mxGeometry>
        </mxCell>
        <mxCell id="YEwaghH6Wu-07DNfXlMs-15" value="身份证读取设备" style="rounded=1;whiteSpace=wrap;html=1;fillColor=#dae8fc;strokeColor=#6c8ebf;fontSize=12;" vertex="1" parent="1">
          <mxGeometry x="456" y="886.76" width="120" height="60" as="geometry" />
        </mxCell>
        <mxCell id="YEwaghH6Wu-07DNfXlMs-16" value="现场操作" style="text;html=1;strokeColor=none;fillColor=none;align=center;verticalAlign=middle;whiteSpace=wrap;rounded=0;fontSize=15;" vertex="1" parent="1">
          <mxGeometry x="344" y="616.76" width="120" height="30" as="geometry" />
        </mxCell>
        <mxCell id="YEwaghH6Wu-07DNfXlMs-17" value="系统响应" style="text;html=1;strokeColor=none;fillColor=none;align=center;verticalAlign=middle;whiteSpace=wrap;rounded=0;fontSize=15;" vertex="1" parent="1">
          <mxGeometry x="740" y="616.76" width="100" height="30" as="geometry" />
        </mxCell>
        <mxCell id="YEwaghH6Wu-07DNfXlMs-18" value="" style="endArrow=none;html=1;rounded=0;entryX=1;entryY=0.5;entryDx=0;entryDy=0;fontSize=12;" edge="1" parent="1" target="YEwaghH6Wu-07DNfXlMs-1">
          <mxGeometry width="50" height="50" relative="1" as="geometry">
            <mxPoint x="130" y="833.76" as="sourcePoint" />
            <mxPoint x="710" y="881.76" as="targetPoint" />
          </mxGeometry>
        </mxCell>
        <mxCell id="YEwaghH6Wu-07DNfXlMs-19" value="访客入园" style="text;html=1;strokeColor=none;fillColor=none;align=center;verticalAlign=middle;whiteSpace=wrap;rounded=0;fontSize=12;" vertex="1" parent="1">
          <mxGeometry x="130" y="716.76" width="60" height="30" as="geometry" />
        </mxCell>
        <mxCell id="YEwaghH6Wu-07DNfXlMs-20" value="访客离园" style="text;html=1;strokeColor=none;fillColor=none;align=center;verticalAlign=middle;whiteSpace=wrap;rounded=0;fontSize=12;" vertex="1" parent="1">
          <mxGeometry x="130" y="931.76" width="60" height="30" as="geometry" />
        </mxCell>
        <mxCell id="YEwaghH6Wu-07DNfXlMs-21" value="访客" style="shape=umlActor;verticalLabelPosition=bottom;verticalAlign=top;html=1;outlineConnect=0;fontSize=12;" vertex="1" parent="1">
          <mxGeometry x="230" y="896.76" width="20" height="40" as="geometry" />
        </mxCell>
        <mxCell id="YEwaghH6Wu-07DNfXlMs-22" value="" style="swimlane;whiteSpace=wrap;html=1;strokeColor=#d6b656;fontFamily=Helvetica;fontSize=12;fontColor=default;fillColor=#a8dadc;startSize=40;" vertex="1" parent="1">
          <mxGeometry x="130" y="611.76" width="1000" height="428.24" as="geometry" />
        </mxCell>
        <mxCell id="YEwaghH6Wu-07DNfXlMs-23" value="系统响应" style="text;html=1;strokeColor=none;fillColor=none;align=center;verticalAlign=middle;whiteSpace=wrap;rounded=0;fontSize=15;fontFamily=Helvetica;fontColor=default;fontStyle=1" vertex="1" parent="YEwaghH6Wu-07DNfXlMs-22">
          <mxGeometry x="550" y="5" width="100" height="30" as="geometry" />
        </mxCell>
        <mxCell id="YEwaghH6Wu-07DNfXlMs-27" value="安保人员" style="text;html=1;strokeColor=none;fillColor=none;align=center;verticalAlign=middle;whiteSpace=wrap;rounded=0;fontSize=15;fontFamily=Helvetica;fontColor=default;fontStyle=1" vertex="1" parent="YEwaghH6Wu-07DNfXlMs-22">
          <mxGeometry x="790" y="5" width="100" height="30" as="geometry" />
        </mxCell>
        <mxCell id="YEwaghH6Wu-07DNfXlMs-25" value="来访人员" style="text;html=1;strokeColor=none;fillColor=none;align=center;verticalAlign=middle;whiteSpace=wrap;rounded=0;fontSize=15;fontFamily=Helvetica;fontColor=default;fontStyle=1" vertex="1" parent="YEwaghH6Wu-07DNfXlMs-22">
          <mxGeometry x="200" y="5" width="100" height="30" as="geometry" />
        </mxCell>
        <mxCell id="YEwaghH6Wu-07DNfXlMs-4" value="身份证读取设备" style="rounded=1;whiteSpace=wrap;html=1;fillColor=#dae8fc;strokeColor=#6c8ebf;fontSize=12;" vertex="1" parent="YEwaghH6Wu-07DNfXlMs-22">
          <mxGeometry x="320" y="105" width="120" height="60" as="geometry" />
        </mxCell>
        <mxCell id="YEwaghH6Wu-07DNfXlMs-34" value="公众号访客预约&lt;br&gt;(自动填写最后一次预约信息)" style="rounded=1;whiteSpace=wrap;html=1;fillColor=#dae8fc;strokeColor=#6c8ebf;fontSize=12;" vertex="1" parent="YEwaghH6Wu-07DNfXlMs-22">
          <mxGeometry x="69.99999999999997" y="105" width="120" height="60" as="geometry" />
        </mxCell>
        <mxCell id="YEwaghH6Wu-07DNfXlMs-5" value="入园，现场身份证识别" style="edgeStyle=orthogonalEdgeStyle;rounded=0;orthogonalLoop=1;jettySize=auto;html=1;entryX=0;entryY=0.5;entryDx=0;entryDy=0;fontSize=12;fillColor=#fff2cc;strokeColor=#d6b656;" edge="1" parent="YEwaghH6Wu-07DNfXlMs-22" source="YEwaghH6Wu-07DNfXlMs-34" target="YEwaghH6Wu-07DNfXlMs-4">
          <mxGeometry relative="1" as="geometry">
            <mxPoint x="120" y="135" as="sourcePoint" />
          </mxGeometry>
        </mxCell>
        <mxCell id="YEwaghH6Wu-07DNfXlMs-8" value="系统自动生成预约单并登记访客身份信息" style="rounded=1;whiteSpace=wrap;html=1;fillColor=#d5e8d4;strokeColor=#82b366;fontSize=12;" vertex="1" parent="YEwaghH6Wu-07DNfXlMs-22">
          <mxGeometry x="577" y="105" width="120" height="60" as="geometry" />
        </mxCell>
        <mxCell id="YEwaghH6Wu-07DNfXlMs-37" style="edgeStyle=orthogonalEdgeStyle;rounded=0;orthogonalLoop=1;jettySize=auto;html=1;exitX=1;exitY=0.5;exitDx=0;exitDy=0;" edge="1" parent="YEwaghH6Wu-07DNfXlMs-22" source="YEwaghH6Wu-07DNfXlMs-4" target="YEwaghH6Wu-07DNfXlMs-8">
          <mxGeometry relative="1" as="geometry" />
        </mxCell>
        <mxCell id="YEwaghH6Wu-07DNfXlMs-24" value="" style="endArrow=none;html=1;rounded=0;entryX=0.5;entryY=0;entryDx=0;entryDy=0;exitX=0.5;exitY=1;exitDx=0;exitDy=0;" edge="1" parent="1" source="YEwaghH6Wu-07DNfXlMs-22" target="YEwaghH6Wu-07DNfXlMs-22">
          <mxGeometry width="50" height="50" relative="1" as="geometry">
            <mxPoint x="570" y="911.76" as="sourcePoint" />
            <mxPoint x="620" y="861.76" as="targetPoint" />
          </mxGeometry>
        </mxCell>
        <mxCell id="YEwaghH6Wu-07DNfXlMs-26" value="" style="endArrow=none;html=1;rounded=0;entryX=0.75;entryY=0;entryDx=0;entryDy=0;exitX=0.75;exitY=1;exitDx=0;exitDy=0;" edge="1" parent="1" source="YEwaghH6Wu-07DNfXlMs-22" target="YEwaghH6Wu-07DNfXlMs-22">
          <mxGeometry width="50" height="50" relative="1" as="geometry">
            <mxPoint x="550" y="880" as="sourcePoint" />
            <mxPoint x="600" y="830" as="targetPoint" />
          </mxGeometry>
        </mxCell>
        <mxCell id="YEwaghH6Wu-07DNfXlMs-32" style="edgeStyle=orthogonalEdgeStyle;rounded=0;orthogonalLoop=1;jettySize=auto;html=1;exitX=0.5;exitY=1;exitDx=0;exitDy=0;entryX=0.5;entryY=0;entryDx=0;entryDy=0;" edge="1" parent="1" source="YEwaghH6Wu-07DNfXlMs-28" target="YEwaghH6Wu-07DNfXlMs-30">
          <mxGeometry relative="1" as="geometry" />
        </mxCell>
        <mxCell id="YEwaghH6Wu-07DNfXlMs-28" value="PC展示预约信息，安保人员填写陪同人" style="rounded=1;whiteSpace=wrap;html=1;fillColor=#f8cecc;strokeColor=#b85450;fontSize=12;" vertex="1" parent="1">
          <mxGeometry x="960" y="716.76" width="120" height="60" as="geometry" />
        </mxCell>
        <mxCell id="YEwaghH6Wu-07DNfXlMs-33" style="edgeStyle=orthogonalEdgeStyle;rounded=0;orthogonalLoop=1;jettySize=auto;html=1;exitX=0.5;exitY=1;exitDx=0;exitDy=0;" edge="1" parent="1" source="YEwaghH6Wu-07DNfXlMs-30" target="YEwaghH6Wu-07DNfXlMs-12">
          <mxGeometry relative="1" as="geometry" />
        </mxCell>
        <mxCell id="YEwaghH6Wu-07DNfXlMs-30" value="PC展示预约单信息" style="rounded=1;whiteSpace=wrap;html=1;fillColor=#f8cecc;strokeColor=#b85450;fontSize=12;" vertex="1" parent="1">
          <mxGeometry x="960" y="886.76" width="120" height="60" as="geometry" />
        </mxCell>
      </root>
    </mxGraphModel>
  </diagram>
</mxfile>
